<svg width="138" height="138" viewBox="0 0 138 138" fill="none" xmlns="http://www.w3.org/2000/svg">
<path d="M41.4264 14.4385L37.2486 16.4919L36.9825 15.9513L37.1897 15.8495C38.1219 15.3913 38.1972 15.2829 37.9595 14.7998L34.9369 8.65756C34.6991 8.17444 34.5672 8.16783 33.635 8.62604L33.4278 8.72786L33.1618 8.18728L37.2936 6.15649C37.9727 5.82274 38.5934 5.63187 39.0984 5.61229C39.9074 5.57174 40.7244 6.07011 41.0867 6.80626C41.3754 7.39285 41.365 8.09792 41.057 8.69207C40.8769 9.05201 40.6745 9.28 40.1787 9.66657C41.8799 9.17328 42.9448 9.47837 43.5052 10.6171C44.1958 12.0204 43.4176 13.4599 41.4264 14.4385ZM38.5072 6.5313C38.1863 6.4891 37.7093 6.62352 37.1799 6.88374L36.7195 7.11001C36.121 7.40416 36.0221 7.60991 36.2429 8.05851L37.5335 10.681L38.5578 10.1775C40.031 9.45346 40.3798 8.73924 39.8251 7.612C39.5081 6.96783 39.0461 6.58075 38.5072 6.5313ZM40.4967 10.1674C40.0778 10.1876 39.549 10.3618 38.8123 10.7238L37.7995 11.2216L39.1579 13.9821C39.4693 14.6148 39.5951 14.6672 40.1821 14.3787L40.6655 14.1411C41.3907 13.7847 41.8343 13.4667 42.1006 13.1072C42.442 12.6681 42.4291 12.003 42.0724 11.2784C41.6989 10.5192 41.1621 10.1546 40.4967 10.1674Z" fill="#FDAD1C"/>
<path d="M54.0459 9.98878L53.9025 9.40365L54.1268 9.34874C55.1358 9.10181 55.2326 9.01213 55.1045 8.48922L53.3534 1.34308L49.1801 2.36442L50.9313 9.51062C51.0594 10.0335 51.1868 10.0683 52.1959 9.8213L52.4325 9.7634L52.5759 10.3485L48.4774 11.3516L48.334 10.7665L48.5583 10.7116C49.5673 10.4647 49.6641 10.375 49.536 9.85207L47.9069 3.20392C47.7788 2.68101 47.6515 2.64618 46.6424 2.89317L46.4181 2.94802L46.2747 2.36289L55.9293 0L56.0726 0.585194L55.8484 0.640046C54.8393 0.886975 54.7425 0.976722 54.8706 1.49956L56.4998 8.14778C56.6279 8.67062 56.7553 8.70545 57.7644 8.45846L57.9885 8.40361L58.132 8.98874L54.0459 9.98878Z" fill="#FDAD1C"/>
<path d="M62.4865 8.85017C61.7077 8.92529 61.1942 8.67862 60.7014 7.97921L60.9293 10.3398C60.9787 10.8501 61.1278 10.9259 61.9576 10.8459L62.098 10.8323L62.1424 11.2916L58.8228 11.6118L58.7785 11.1525L58.8295 11.1476C59.6467 11.0688 59.7784 10.9659 59.7292 10.4555L59.1365 4.31811C59.0836 3.76946 58.9983 3.68753 58.5259 3.7331L58.0662 3.77747L58.0133 3.22876L60.2085 2.87537L60.296 3.78128C60.669 2.97261 61.1603 2.59037 61.9519 2.51403C63.3564 2.37858 64.5874 3.65073 64.7575 5.41153C64.9337 7.23613 63.9676 8.70735 62.4865 8.85017ZM61.7887 3.2252C60.8183 3.31882 60.3362 4.3312 60.489 5.91339C60.6307 7.38073 61.322 8.26707 62.2284 8.17961C63.135 8.09222 63.5684 7.11028 63.4096 5.46428C63.2653 3.97139 62.6697 3.14022 61.7887 3.2252Z" fill="#FDAD1C"/>
<path d="M68.5033 8.62863C66.9643 8.60359 65.7561 7.17369 65.7847 5.41772C65.8138 3.62331 67.0679 2.24628 68.6325 2.27171C70.1459 2.29631 71.3539 3.73905 71.3253 5.49501C71.2966 7.26381 70.0424 8.65367 68.5033 8.62863ZM68.6235 2.82283C67.6616 2.8072 67.1597 3.69653 67.1313 5.43965C67.1037 7.13148 67.5889 8.0625 68.5123 8.0775C69.4358 8.0925 69.9509 7.17782 69.9787 5.47315C70.0063 3.78125 69.5213 2.83745 68.6235 2.82283Z" fill="#FDAD1C"/>
<path d="M78.4989 10.9245C78.5289 9.76545 78.1285 9.24985 77.0851 9.11822L71.8292 8.45542L71.8871 7.99754L71.9761 8.00879C72.7906 8.1115 72.9418 8.04012 73.0061 7.53139L73.4878 3.71603C73.552 3.20736 73.4233 3.10064 72.6088 2.99793L72.5579 2.99151L72.6158 2.53369L75.8355 2.93971L75.7776 3.39753L75.7267 3.39111C74.8995 3.28681 74.7483 3.35819 74.6841 3.86692L74.2279 7.47876C74.1637 7.98749 74.2034 8.08296 75.1197 8.19851L75.9978 8.30923C76.9267 8.42637 76.9635 8.34057 77.0277 7.83184L77.4837 4.21999C77.5479 3.71126 77.4192 3.60461 76.592 3.50024L76.5412 3.49382L76.5989 3.036L79.8186 3.44202L79.7608 3.89991L79.7099 3.89349C78.8954 3.79077 78.7442 3.86215 78.68 4.37082L78.211 8.08448C78.1468 8.59315 78.1483 8.68379 78.7337 8.75765L79.1664 8.81218L79.0079 10.9887L78.4989 10.9245Z" fill="#FDAD1C"/>
<path d="M82.3652 10.3942C80.6835 9.98206 79.84 8.52153 80.2677 6.77859C80.7259 4.91108 82.2609 3.82224 83.8554 4.21301C85.3753 4.58547 86.1104 6.16461 85.6396 8.02907L81.6035 7.03995C81.423 7.72163 81.4157 8.18174 81.5483 8.61019C81.7378 9.2374 82.1315 9.62422 82.7668 9.77994C83.6015 9.98448 84.2164 9.7392 84.9623 8.90575L85.3403 9.24909C84.5394 10.3067 83.5487 10.6842 82.3652 10.3942ZM83.6992 4.74227C83.1013 4.5957 82.614 4.85909 82.1691 5.54198C81.959 5.86003 81.842 6.1217 81.7472 6.50764L83.9273 7.04186C84.3259 7.13955 84.4625 7.06747 84.5511 6.70639C84.7955 5.71041 84.4591 4.9285 83.6992 4.74227Z" fill="#FDAD1C"/>
<path d="M88.06 12.1074C86.5594 11.5811 85.9469 10.035 86.5501 8.31764C87.1829 6.5156 88.7629 5.61629 90.336 6.16805C91.4132 6.54585 92.0031 7.45914 91.7184 8.26946C91.5486 8.75322 91.115 8.98152 90.6914 8.83292C90.2679 8.68438 90.0631 8.3001 90.2032 7.90101C90.2754 7.69539 90.3663 7.59141 90.6407 7.42952C90.7145 7.37397 90.7515 7.3462 90.7642 7.3099C90.8321 7.11636 90.577 6.8367 90.2139 6.70933C89.3185 6.39528 88.3814 7.16689 87.8675 8.63029C87.3705 10.0453 87.6656 11.1405 88.6337 11.48C89.263 11.7007 89.7976 11.4943 90.4907 10.7594L90.8989 11.1063C89.9284 12.2058 89.1371 12.4852 88.06 12.1074Z" fill="#FDAD1C"/>
<path d="M93.1286 14.1761C91.6822 13.5152 91.2132 11.9199 91.9705 10.2645C92.7651 8.52765 94.4204 7.77593 95.9368 8.46866C96.975 8.94301 97.4792 9.90619 97.1219 10.6872C96.9086 11.1535 96.456 11.3414 96.0478 11.1549C95.6395 10.9683 95.4706 10.567 95.6465 10.1823C95.7372 9.98412 95.8372 9.8889 96.125 9.75263C96.2037 9.70401 96.2431 9.67973 96.2591 9.64477C96.3443 9.45822 96.1157 9.15644 95.7658 8.99659C94.9026 8.60226 93.8992 9.28534 93.2539 10.6959C92.63 12.0598 92.824 13.1772 93.7572 13.6035C94.3637 13.8806 94.915 13.7238 95.6722 13.055L96.047 13.4377C94.9802 14.4442 94.1668 14.6504 93.1286 14.1761Z" fill="#FDAD1C"/>
<path d="M98.1746 16.8058C96.6766 15.9378 96.2779 14.2992 97.1786 12.7467C98.1437 11.0834 99.923 10.4697 101.343 11.2927C102.697 12.0771 102.958 13.799 101.982 15.456L98.387 13.3729C98.0221 13.9763 97.8857 14.4159 97.8924 14.8643C97.8978 15.5193 98.1668 16.0012 98.7327 16.3291C99.4762 16.7599 100.135 16.6972 101.086 16.107L101.352 16.5427C100.286 17.3326 99.2287 17.4166 98.1746 16.8058ZM101.044 11.7567C100.512 11.448 99.9702 11.5639 99.3512 12.0942C99.0601 12.3404 98.8742 12.5587 98.6747 12.9025L100.617 14.0276C100.972 14.2333 101.123 14.2025 101.31 13.8809C101.824 12.9937 101.721 12.1488 101.044 11.7567Z" fill="#FDAD1C"/>
<path d="M101.013 18.5336L100.401 18.1109L108.688 12.1479L109.299 12.5706L101.013 18.5336Z" fill="#FDAD1C"/>
<path d="M104.471 20.6687L108.305 16.1538C108.98 15.359 109.74 14.927 110.583 14.8581C111.427 14.7891 112.272 15.1139 113.12 15.8329C113.994 16.5738 114.447 17.3567 114.482 18.1815C114.516 19.0062 114.154 19.8649 113.396 20.7575L112.516 20.011C113.097 19.3269 113.381 18.705 113.368 18.1452C113.356 17.5855 113.053 17.0538 112.46 16.5507C111.893 16.0696 111.33 15.861 110.771 15.9249C110.212 15.9888 109.658 16.3433 109.111 16.9882L105.982 20.6725L110.363 24.3884L109.732 25.1311L104.471 20.6687Z" fill="#FDAD1C"/>
<path d="M117.593 23.2263L117.385 23.4164C116.683 23.5356 116.081 23.6685 115.578 23.8148C115.075 23.9612 114.636 24.1332 114.261 24.3308C113.885 24.5283 113.546 24.7654 113.243 25.042C112.751 25.4913 112.501 25.9123 112.495 26.3053C112.49 26.6982 112.66 27.084 113.006 27.4627C113.369 27.8604 113.814 28.047 114.342 28.0228C114.869 27.9985 115.43 27.7156 116.024 27.174L118.298 25.1003L119.067 25.943L114.406 30.1941L113.801 29.5314L114.53 28.6755L114.478 28.6187C114.116 28.7292 113.728 28.7388 113.314 28.6473C112.901 28.5558 112.513 28.3113 112.15 27.9136C111.602 27.3139 111.349 26.6944 111.39 26.0553C111.432 25.4159 111.768 24.8084 112.4 24.2322C112.684 23.9731 113.003 23.7487 113.356 23.5591C113.71 23.3696 114.14 23.2063 114.645 23.069C115.151 22.9318 115.763 22.8191 116.481 22.731L116.317 21.9613C116.172 21.2833 116.276 20.7831 116.63 20.4604C116.82 20.2876 117.08 20.1604 117.41 20.0786L118.228 19.871L118.502 20.8181L117.962 20.9294C117.747 20.9741 117.581 21.0513 117.461 21.1607C117.246 21.3566 117.19 21.6564 117.293 22.0603L117.593 23.2263Z" fill="#FDAD1C"/>
<path d="M113.179 33.4449L120.827 28.0913L121.342 28.8262L120.509 29.5815L120.546 29.634C120.94 29.5869 121.351 29.6592 121.778 29.851C122.205 30.0427 122.58 30.3694 122.904 30.8314C123.414 31.5592 123.612 32.2844 123.497 33.0064C123.382 33.7287 122.922 34.4024 122.118 35.0278C122.274 35.3987 122.384 35.7495 122.448 36.0799L121.611 36.3374C121.556 36.0946 121.47 35.831 121.354 35.5468C119.861 36.4251 118.717 36.2974 117.923 35.1635C117.564 34.6525 117.421 34.158 117.493 33.6799C117.565 33.2016 117.833 32.8008 118.295 32.4772C118.806 32.1195 119.316 32.0234 119.823 32.1896C120.331 32.3557 120.777 32.7117 121.159 33.2576C121.316 33.4815 121.465 33.7164 121.606 33.9621C122.134 33.5089 122.42 33.0561 122.463 32.6035C122.506 32.1509 122.372 31.7042 122.063 31.2633C121.705 30.7522 121.26 30.4331 120.727 30.3054C120.193 30.1779 119.619 30.3298 119.002 30.7612L113.834 34.3793L113.179 33.4449ZM118.881 33.3812C118.622 33.5627 118.481 33.7556 118.457 33.96C118.433 34.1644 118.51 34.3925 118.686 34.6445C118.922 34.9805 119.212 35.1267 119.557 35.0832C119.903 35.0396 120.339 34.8435 120.868 34.4948C120.729 34.2372 120.583 33.9998 120.431 33.7829C120.215 33.4748 119.975 33.2808 119.71 33.2004C119.444 33.12 119.168 33.1802 118.881 33.3812Z" fill="#FDAD1C"/>
<path d="M121.194 40.4491C120.901 39.8408 120.84 39.2724 121.013 38.7437C121.185 38.2149 121.618 37.7838 122.311 37.4501L126.021 35.6647L126.516 36.6925L123.003 38.3833C122.518 38.617 122.212 38.9038 122.087 39.244C121.961 39.5842 121.984 39.9314 122.154 40.2856C122.384 40.7629 122.735 41.0663 123.205 41.1955C123.675 41.3249 124.261 41.2207 124.962 40.8833L127.863 39.4872L128.358 40.515L124.845 42.2059C124.36 42.4395 124.054 42.7263 123.929 43.0666C123.803 43.4068 123.826 43.7539 123.997 44.1081C124.215 44.5623 124.562 44.8579 125.036 44.9949C125.51 45.1318 126.098 45.0317 126.799 44.6943L129.699 43.2982L130.195 44.326L124.509 47.0625L124.125 46.2657L124.983 45.6821L124.955 45.6243C124.618 45.6156 124.275 45.5129 123.924 45.3167C123.573 45.1204 123.277 44.772 123.036 44.2716C122.832 43.8481 122.742 43.4359 122.768 43.0351C122.792 42.6341 122.949 42.2791 123.237 41.9699L123.209 41.9122C122.826 41.9064 122.451 41.7767 122.082 41.5228C121.712 41.2688 121.417 40.911 121.194 40.4491Z" fill="#FDAD1C"/>
<path d="M122.708 52.0041C122.579 51.5786 122.505 51.1993 122.485 50.8663C122.465 50.5331 122.468 50.1886 122.495 49.8325L123.44 49.5476C123.39 49.8841 123.373 50.2282 123.39 50.5802C123.407 50.932 123.481 51.3248 123.611 51.7585C123.826 52.4703 124.122 52.9187 124.5 53.1041C124.877 53.2894 125.316 53.3068 125.815 53.1564L126.196 53.0417C126.4 52.9801 126.594 52.9261 126.776 52.88C126.959 52.8339 127.173 52.7875 127.417 52.7405L127.395 52.6668C126.945 52.624 126.565 52.4596 126.255 52.1736C125.946 51.8874 125.72 51.5113 125.58 51.045C125.353 50.2921 125.432 49.6168 125.819 49.0183C126.205 48.4199 126.906 47.9677 127.922 47.6618C128.953 47.351 129.81 47.3358 130.493 47.6165C131.176 47.8971 131.64 48.4425 131.885 49.2524C132.023 49.7106 132.044 50.1283 131.948 50.5053C131.851 50.8824 131.668 51.2142 131.397 51.5011L131.416 51.5624L132.406 51.4248L132.665 52.2839L126.402 54.1709C125.813 54.3485 125.28 54.4039 124.805 54.3376C124.329 54.2711 123.916 54.0497 123.566 53.6733C123.216 53.2968 122.93 52.7405 122.708 52.0041ZM126.554 51.0326C126.685 51.4661 126.889 51.7796 127.166 51.9728C127.443 52.1659 127.768 52.2667 128.141 52.2748C128.514 52.2829 128.909 52.224 129.327 52.0982L129.413 52.0723C130.068 51.875 130.551 51.5907 130.864 51.22C131.176 50.8492 131.241 50.3611 131.058 49.7557C130.723 48.643 129.785 48.3185 128.246 48.7823C127.485 49.0117 126.974 49.3172 126.714 49.6991C126.454 50.0807 126.401 50.5252 126.554 51.0326Z" fill="#FDAD1C"/>
<path d="M124.094 56.54L125.396 56.3166L125.244 55.4323L126.128 55.2805L126.28 56.1648L133.296 54.9609L133.45 55.8579L132.309 56.1838L132.318 56.2343C132.729 56.3544 133.083 56.5624 133.381 56.8581C133.679 57.1537 133.873 57.5626 133.963 58.0849C134.103 58.9017 133.925 59.5784 133.427 60.1147C132.929 60.6509 132.183 61.0045 131.188 61.1751C130.211 61.3429 129.386 61.2523 128.715 60.9038C128.043 60.5551 127.637 59.9722 127.497 59.1554C127.411 58.6583 127.444 58.2301 127.595 57.8705C127.746 57.5108 127.992 57.215 128.334 56.9829L128.321 56.9071C128.064 56.9772 127.829 57.0348 127.615 57.0802C127.402 57.1253 127.19 57.1662 126.979 57.2024L126.474 57.2891L127.196 61.496L126.311 61.6478L125.589 57.441L124.287 57.6644L124.094 56.54ZM128.37 58.7065C128.465 59.2623 128.738 59.6532 129.189 59.8794C129.64 60.1055 130.241 60.1542 130.991 60.0255C131.724 59.8997 132.264 59.6617 132.612 59.3116C132.96 58.9614 133.088 58.5212 132.997 57.9906C132.896 57.401 132.617 56.9935 132.162 56.7682C131.707 56.5427 131.125 56.4909 130.418 56.6123L130.354 56.6232C129.528 56.765 128.968 57.0149 128.674 57.3732C128.38 57.7314 128.279 58.1759 128.37 58.7065Z" fill="#FDAD1C"/>
<path d="M138 63.994L134.567 64.1608C134.379 64.1699 134.195 64.1724 134.015 64.1683C133.835 64.1642 133.646 64.1584 133.449 64.1509L133.452 64.2149C133.81 64.3599 134.117 64.5911 134.372 64.9081C134.627 65.225 134.768 65.6608 134.795 66.2158C134.83 66.9327 134.656 67.4994 134.274 67.9158C133.892 68.3322 133.299 68.5599 132.497 68.5989L128.474 68.7943L128.419 67.6548L132.223 67.47C132.796 67.4422 133.215 67.3 133.48 67.0432C133.746 66.7865 133.868 66.4361 133.847 65.9924C133.82 65.446 133.6 65.0204 133.187 64.7154C132.774 64.4102 132.162 64.2775 131.351 64.3169L125.24 64.6138L125.185 63.4743L137.944 62.8545L138 63.994Z" fill="#FDAD1C"/>
<path d="M132.555 79.9154L127.605 79.2944L127.717 78.4041L128.842 78.4031L128.85 78.3396C128.53 78.1358 128.272 77.845 128.074 77.4671C127.876 77.089 127.81 76.6331 127.877 76.0989C127.965 75.4036 128.235 74.8798 128.689 74.5278C129.142 74.1755 129.763 74.049 130.552 74.1479L134.548 74.6492L134.406 75.7811L130.627 75.3069C130.058 75.2357 129.62 75.3077 129.313 75.5233C129.006 75.7387 128.826 76.0585 128.773 76.4825C128.705 77.0167 128.849 77.4717 129.202 77.8477C129.556 78.2234 130.14 78.4626 130.954 78.5648L132.672 78.7803C132.944 78.8144 133.224 78.7915 133.515 78.7116C133.805 78.6317 134.121 78.4666 134.462 78.2168C134.841 77.9456 135.162 77.7576 135.425 77.6529C135.688 77.548 135.93 77.5095 136.15 77.5372C136.6 77.5936 136.961 77.7895 137.234 78.1252C137.506 78.4608 137.602 78.9466 137.522 79.5825C137.457 80.0995 137.253 80.4918 136.909 80.7587C136.566 81.0256 136.105 81.1229 135.528 81.0505L135.664 79.9695C135.919 80.0014 136.13 79.9783 136.3 79.9007C136.469 79.8227 136.569 79.6567 136.601 79.4023C136.628 79.1903 136.591 79.022 136.49 78.8975C136.39 78.7729 136.258 78.7005 136.097 78.6803C135.902 78.6558 135.715 78.6904 135.535 78.7842C135.355 78.8779 135.081 79.0566 134.711 79.3203C134.333 79.5913 133.98 79.7712 133.655 79.8595C133.329 79.9479 132.963 79.9665 132.555 79.9154Z" fill="#FDAD1C"/>
<path d="M129.846 87.5376L125.904 86.5416L126.124 85.6718L127.241 85.8084L127.256 85.7463C126.965 85.505 126.744 85.1847 126.593 84.7854C126.443 84.386 126.434 83.9254 126.566 83.4035C126.738 82.7241 127.07 82.2373 127.563 81.9434C128.057 81.6493 128.689 81.5998 129.46 81.7946L136.697 83.6232L136.417 84.7292L133.085 83.8871L131.959 88.336L131.089 88.1161L132.214 83.6672L129.391 82.954C128.836 82.8136 128.393 82.8315 128.061 83.008C127.73 83.1842 127.512 83.4795 127.407 83.8938C127.275 84.4158 127.366 84.8858 127.679 85.3044C127.992 85.7227 128.538 86.0305 129.317 86.2274L130.126 86.4316L129.846 87.5376Z" fill="#FDAD1C"/>
<path d="M122.723 89.1693L121.505 92.3816L120.665 92.0637L122.151 88.1442C122.391 87.5128 122.758 87.2911 123.254 87.4788C123.358 87.5182 123.476 87.5992 123.607 87.7223C123.739 87.8453 123.881 88.0545 124.034 88.3502L125.071 90.4285C125.264 90.4011 125.476 90.3354 125.708 90.2312C125.939 90.127 126.219 89.9449 126.546 89.685C126.912 89.394 127.287 89.2187 127.671 89.1585C128.055 89.0983 128.491 89.1606 128.979 89.3453C129.715 89.6238 130.226 90.0779 130.513 90.7075C130.8 91.337 130.788 92.0633 130.475 92.8865C130.154 93.7334 129.692 94.301 129.089 94.589C128.486 94.8769 127.793 94.8725 127.01 94.5759C126.498 94.3821 126.048 94.0177 125.661 93.4828C125.275 92.9478 124.857 92.221 124.41 91.3024L123.526 89.4736C123.436 89.3023 123.36 89.1775 123.298 89.0992C123.236 89.0211 123.165 88.9668 123.085 88.9365C123.005 88.9063 122.938 88.9034 122.883 88.9283C122.827 88.9531 122.774 89.0333 122.723 89.1693ZM126.778 90.6639C126.321 91.0023 125.889 91.1999 125.484 91.2566C125.802 91.8887 126.107 92.3811 126.398 92.7337C126.69 93.0861 127.023 93.3336 127.399 93.476C127.943 93.6819 128.4 93.6996 128.771 93.5295C129.142 93.3591 129.418 93.0343 129.6 92.5549C129.779 92.0833 129.778 91.6561 129.599 91.273C129.42 90.8898 129.074 90.6013 128.562 90.4075C128.195 90.2682 127.882 90.2183 127.625 90.2581C127.367 90.2977 127.085 90.4328 126.778 90.6639Z" fill="#FDAD1C"/>
<path d="M121.474 97.2655L129.947 102.081L129.383 103.073L126.395 101.375L124.81 104.16L124.03 103.717L125.615 100.931L121.69 98.7007L120.878 100.127C120.587 100.64 120.264 100.948 119.91 101.051C119.556 101.155 119.119 101.059 118.599 100.763L118.297 100.592L118.862 99.6001L119.007 99.6825C119.304 99.8515 119.546 99.9198 119.731 99.8877C119.917 99.8554 120.083 99.7094 120.231 99.4494L121.474 97.2655Z" fill="#FDAD1C"/>
<path d="M118.668 101.681L119.084 101.065L125.141 109.281L124.725 109.897L118.668 101.681Z" fill="#FDAD1C"/>
<path d="M113.416 108.931L113.874 109.323L113.725 109.498C113.05 110.288 113.024 110.417 113.434 110.767L119.033 115.544L121.822 112.278L116.223 107.501C115.814 107.151 115.69 107.197 115.015 107.987L114.857 108.172L114.399 107.781L117.138 104.574L117.597 104.965L117.447 105.14C116.772 105.93 116.746 106.059 117.156 106.409L122.365 110.853C122.775 111.203 122.898 111.157 123.573 110.367L123.723 110.191L124.181 110.583L117.727 118.138L117.269 117.746L117.419 117.571C118.093 116.781 118.119 116.652 117.71 116.303L112.501 111.858C112.091 111.509 111.967 111.555 111.293 112.345L111.143 112.52L110.685 112.129L113.416 108.931Z" fill="#FDAD1C"/>
<path d="M107.235 114.789C107.822 114.272 108.383 114.172 109.192 114.451L107.625 112.67C107.286 112.285 107.121 112.311 106.495 112.861L106.389 112.954L106.084 112.608L108.588 110.407L108.893 110.754L108.854 110.787C108.238 111.329 108.192 111.49 108.53 111.875L112.605 116.504C112.969 116.918 113.086 116.935 113.442 116.622L113.789 116.317L114.153 116.731L112.58 118.301L111.979 117.618C112.15 118.492 111.975 119.089 111.378 119.614C110.319 120.545 108.576 120.233 107.407 118.905C106.195 117.529 106.117 115.771 107.235 114.789ZM111.094 118.942C111.826 118.298 111.624 117.195 110.574 116.002C109.6 114.895 108.52 114.581 107.837 115.182C107.153 115.783 107.376 116.832 108.469 118.074C109.46 119.2 110.43 119.526 111.094 118.942Z" fill="#FDAD1C"/>
<path d="M102.474 118.493C103.733 117.609 105.552 118.055 106.562 119.492C107.594 120.961 107.389 122.811 106.109 123.71C104.87 124.58 103.045 124.122 102.035 122.685C101.017 121.238 101.214 119.377 102.474 118.493ZM105.792 123.259C106.579 122.707 106.462 121.692 105.459 120.266C104.486 118.881 103.546 118.413 102.791 118.944C102.035 119.474 102.156 120.517 103.137 121.912C104.11 123.296 105.057 123.775 105.792 123.259Z" fill="#FDAD1C"/>
<path d="M97.4675 126.232C98.1361 127.179 98.7653 127.354 99.6809 126.836L100.116 126.591C100.585 126.325 100.409 126.013 100.238 125.712L98.4454 122.543C98.1929 122.096 98.0259 122.088 97.3001 122.498L97.2555 122.523L97.0283 122.121L99.8531 120.525L100.08 120.927L100.036 120.952C99.3212 121.356 99.2426 121.503 99.4951 121.95L101.389 125.297C101.641 125.744 101.808 125.752 102.523 125.349L102.601 125.305L102.828 125.706L98.1945 128.324L97.0209 126.484L97.4675 126.232Z" fill="#FDAD1C"/>
<path d="M91.2453 124.711C91.9633 124.4 92.5278 124.477 93.212 124.991L92.2685 122.815C92.0645 122.344 91.8994 122.318 91.1343 122.649L91.0048 122.705L90.8213 122.282L93.8814 120.957L94.0651 121.38L94.0179 121.4C93.2646 121.727 93.1709 121.865 93.3749 122.336L95.8279 127.993C96.0472 128.499 96.1536 128.551 96.5891 128.362L97.0128 128.179L97.2321 128.685L95.252 129.696L94.8898 128.861C94.7839 129.745 94.434 130.259 93.7042 130.575C92.4096 131.136 90.8466 130.304 90.1428 128.681C89.4134 126.999 89.88 125.302 91.2453 124.711ZM93.6407 129.849C94.5352 129.461 94.6824 128.35 94.0499 126.891C93.4634 125.538 92.5328 124.908 91.6973 125.269C90.8616 125.631 90.7513 126.699 91.4092 128.216C92.0059 129.593 92.8286 130.2 93.6407 129.849Z" fill="#FDAD1C"/>
<path d="M85.4412 126.809C87.0962 126.3 88.5701 127.121 89.0982 128.836C89.6641 130.674 88.906 132.396 87.3369 132.878C85.8413 133.338 84.3993 132.36 83.8458 130.519L87.8177 129.297C87.6224 128.62 87.3923 128.221 87.0586 127.921C86.5738 127.48 86.0373 127.35 85.4121 127.542C84.5906 127.795 84.189 128.321 83.9769 129.419L83.4761 129.318C83.6204 128 84.2767 127.167 85.4412 126.809ZM87.1991 132.344C87.7875 132.163 88.0704 131.687 88.1016 130.873C88.1185 130.492 88.0845 130.208 87.9676 129.828L85.8223 130.488C85.43 130.608 85.3499 130.74 85.4593 131.095C85.761 132.075 86.4513 132.574 87.1991 132.344Z" fill="#FDAD1C"/>
<path d="M79.6746 128.26C81.2329 127.941 82.5525 128.954 82.9169 130.738C83.2991 132.609 82.4049 134.191 80.7713 134.525C79.6529 134.753 78.6775 134.272 78.5055 133.43C78.4029 132.928 78.6578 132.51 79.0976 132.42C79.5375 132.33 79.9107 132.555 79.9953 132.969C80.0389 133.183 80.0144 133.318 79.862 133.598C79.8271 133.684 79.8097 133.727 79.8175 133.764C79.8584 133.965 80.2212 134.074 80.5981 133.997C81.528 133.808 81.9361 132.665 81.6256 131.145C81.3254 129.676 80.5097 128.887 79.5044 129.092C78.8509 129.226 78.498 129.677 78.2807 130.663L77.752 130.575C78.0204 129.133 78.5562 128.488 79.6746 128.26Z" fill="#FDAD1C"/>
<path d="M74.2634 129.086C75.8441 128.91 77.0665 130.038 77.2677 131.847C77.4788 133.745 76.445 135.24 74.7877 135.424C73.6532 135.55 72.7254 134.983 72.6305 134.129C72.5738 133.62 72.8656 133.226 73.3117 133.177C73.7579 133.127 74.1092 133.384 74.1559 133.805C74.1801 134.021 74.1432 134.155 73.9661 134.419C73.9236 134.501 73.9024 134.542 73.9067 134.581C73.9294 134.784 74.2807 134.926 74.663 134.884C75.6064 134.779 76.1163 133.677 75.9448 132.136C75.779 130.645 75.0382 129.786 74.0184 129.9C73.3554 129.973 72.9632 130.391 72.6573 131.353L72.1388 131.217C72.5368 129.806 73.1288 129.212 74.2634 129.086Z" fill="#FDAD1C"/>
<path d="M65.9915 133.453C66.1257 134.604 66.3385 135.062 67.3902 135.045L67.5184 135.043C68.0571 135.034 68.0512 134.676 68.0455 134.329L67.9862 130.689C67.978 130.177 67.8354 130.089 67.0017 130.103L66.9505 130.104L66.943 129.642L70.1878 129.589L70.1953 130.051L70.1439 130.052C69.3231 130.065 69.1836 130.157 69.1918 130.67L69.2511 134.31C69.2568 134.656 69.2625 135.015 69.8012 135.006L69.9296 135.004C70.9811 134.987 71.1789 134.522 71.2755 133.367L71.7886 133.358L71.7086 135.539L65.6294 135.638L65.4785 133.461L65.9915 133.453Z" fill="#FDAD1C"/>
<path d="M62.1581 129.171C63.8825 129.326 64.9359 130.643 64.775 132.43C64.6027 134.345 63.249 135.652 61.614 135.505C60.0555 135.365 59.0916 133.914 59.2767 132L63.4152 132.372C63.4913 131.671 63.4292 131.215 63.2338 130.811C62.9522 130.22 62.5049 129.897 61.8535 129.838C60.9976 129.761 60.4267 130.096 59.8145 131.032L59.3893 130.749C60.0221 129.583 60.9446 129.062 62.1581 129.171ZM61.6889 134.958C62.302 135.013 62.7441 134.68 63.0812 133.938C63.2411 133.592 63.3175 133.316 63.3531 132.92L61.1178 132.719C60.7089 132.682 60.5848 132.774 60.5515 133.144C60.4596 134.165 60.9097 134.888 61.6889 134.958Z" fill="#FDAD1C"/>
<path d="M58.8542 128.802L59.5875 128.927L54.5932 137.827L53.8599 137.702L58.8542 128.802Z" fill="#FDAD1C"/>
<path d="M44.7398 134.508C45.3947 134.691 46.1947 134.448 46.7563 133.82L51.4209 128.653C51.7866 128.249 52.2919 127.631 53.6137 128C54.6515 128.289 55.034 128.875 54.7824 129.776C54.6548 130.233 54.1803 130.407 53.7232 130.279C53.3649 130.18 53.1271 129.887 53.2235 129.541C53.4166 128.85 53.8727 129.123 53.9416 128.877C53.9692 128.778 53.6618 128.639 53.4518 128.58C52.797 128.398 52.3641 128.756 51.9283 129.22L51.0919 130.118L52.5674 136.185C52.6939 136.686 52.8688 136.775 53.4742 136.943L53.6842 137.002L53.5223 137.582L49.7048 136.518L49.8668 135.938L50.3363 136.069C50.8057 136.2 50.9396 136.197 50.9741 136.073C50.9913 136.012 50.9606 135.883 50.9244 135.727L50.0223 131.23L47.3388 134.262C47.1813 134.444 47.0865 134.497 47.0486 134.633C46.9555 134.966 47.1737 135.187 47.7667 135.352L47.9395 135.4L47.7776 135.981L44.3802 135.034L44.5422 134.453L44.7398 134.508Z" fill="#FDAD1C"/>
<path d="M34.8222 126.471C35.567 126.845 35.7333 126.828 35.9639 126.37L37.6937 122.935C37.9243 122.477 37.8386 122.334 37.1053 121.965L37.0595 121.942L37.2671 121.53L40.1658 122.987L39.9584 123.4L39.9124 123.377C39.1677 123.002 39.0013 123.019 38.7707 123.477L37.139 126.717C36.9084 127.175 36.891 127.267 37.7274 127.688L38.518 128.085C39.343 128.5 39.4291 128.443 39.6597 127.985L41.2914 124.745C41.522 124.287 41.4364 124.143 40.6917 123.768L40.6457 123.745L40.8533 123.333L43.7522 124.791L43.5446 125.203L43.4988 125.18C42.7655 124.811 42.5991 124.828 42.3684 125.286L40.6387 128.721C40.4081 129.179 40.4937 129.323 41.227 129.692L41.3073 129.732L41.0997 130.144L34.5344 126.843L34.742 126.43L34.8222 126.471Z" fill="#FDAD1C"/>
<path d="M33.8421 119.017C34.4934 119.45 34.7357 119.965 34.6758 120.819L35.9906 118.845C36.2749 118.418 36.2071 118.265 35.5133 117.803L35.3957 117.725L35.6517 117.341L38.4275 119.188L38.1717 119.572L38.129 119.543C37.4457 119.089 37.2785 119.085 36.9942 119.512L33.5757 124.645C33.27 125.103 33.2844 125.221 33.6795 125.484L34.0637 125.739L33.7582 126.198L31.8329 125.087L32.3375 124.329C31.5374 124.721 30.9148 124.707 30.2529 124.266C29.0784 123.485 28.9278 121.722 29.9087 120.249C30.925 118.724 32.6036 118.193 33.8421 119.017ZM30.8288 123.818C31.6403 124.358 32.6537 123.877 33.5351 122.554C34.3525 121.327 34.3765 120.204 33.6185 119.699C32.8604 119.195 31.9039 119.683 30.987 121.059C30.1555 122.308 30.0922 123.328 30.8288 123.818Z" fill="#FDAD1C"/>
<path d="M27.0055 113.806C27.4657 114.195 27.5448 114.598 27.2791 115.229C28.1226 115.086 28.9617 115.325 29.6374 115.896C30.499 116.625 30.6762 117.547 30.088 118.242C29.5661 118.858 28.7655 118.971 27.6583 118.572C27.0211 118.352 26.6415 118.165 25.4641 117.472L25.1411 117.854C24.7683 118.294 24.6381 118.587 24.6916 118.901C24.7239 119.18 24.9839 119.568 25.2874 119.825C25.7574 120.222 26.3081 120.385 26.4821 120.18C26.5069 120.15 26.5219 120.113 26.5211 119.994C26.5392 119.775 26.6062 119.596 26.714 119.469C26.9624 119.176 27.3617 119.16 27.6651 119.417C28.0079 119.707 28.0343 120.132 27.7196 120.504C27.1232 121.209 25.8713 121.04 24.7746 120.113C24.1479 119.583 23.7841 119.04 23.6762 118.513C23.5911 118.038 23.7484 117.634 24.2703 117.017L25.9354 115.05C26.3495 114.561 26.4091 114.292 26.1348 114.06C26.0565 113.994 26.009 113.971 25.8027 113.897C25.7092 113.868 25.6618 113.845 25.6226 113.812C25.5737 113.771 25.5661 113.68 25.6241 113.612C25.8644 113.328 26.5649 113.433 27.0055 113.806ZM25.8204 117.052C26.6918 117.57 27.1566 117.795 27.5761 117.915C28.1809 118.073 28.6352 117.954 28.983 117.543C29.3557 117.102 29.2962 116.498 28.8556 116.125C28.4344 115.769 27.777 115.633 27.2257 115.788C26.8438 115.902 26.6984 116.014 26.2015 116.601L25.8204 117.052Z" fill="#FDAD1C"/>
<path d="M22.3194 106.779C21.5527 107.649 21.5289 108.301 22.245 109.07L25.8517 112.947L25.5136 113.261L25.4524 113.196C24.8935 112.595 24.7317 112.553 24.356 112.902L21.5382 115.52C21.1625 115.869 21.1928 116.034 21.7517 116.634L21.7867 116.672L21.4485 116.986L19.239 114.611L19.5771 114.297L19.6121 114.335C20.1798 114.945 20.3416 114.987 20.7173 114.638L23.3848 112.159C23.7606 111.81 23.7914 111.711 23.1626 111.035L22.5601 110.388C21.9226 109.703 21.8394 109.745 21.4636 110.094L18.796 112.573C18.4203 112.922 18.4507 113.086 19.0183 113.696L19.0532 113.734L18.7151 114.048L16.5056 111.673L16.8438 111.359L16.8787 111.396C17.4376 111.997 17.5995 112.039 17.9751 111.69L20.7179 109.142C21.0936 108.793 21.1506 108.722 20.7489 108.29L20.4519 107.971L21.9701 106.403L22.3194 106.779Z" fill="#FDAD1C"/>
<path d="M19.4869 105.351C20.3844 106.553 20.3098 107.76 19.5902 108.297C19.2305 108.565 18.7226 108.528 18.5001 108.23C18.3084 107.974 18.3145 107.553 18.5715 107.362C18.9826 107.055 19.2098 107.573 19.3742 107.451C19.5181 107.343 19.7143 106.813 19.1313 106.032C18.5636 105.272 17.4475 105.321 16.3351 106.039L17.3247 107.364L16.8005 107.755L15.8185 106.44C14.7929 107.317 14.4544 108.321 14.9761 109.019C15.2063 109.328 15.5497 109.487 15.7141 109.365C15.745 109.342 15.7604 109.298 15.7914 109.211C15.864 108.901 15.9361 108.783 16.1109 108.653C16.4501 108.4 16.8783 108.48 17.1468 108.84C17.4153 109.2 17.327 109.681 16.9158 109.988C16.2271 110.502 15.1786 110.212 14.4958 109.298C13.4985 107.962 13.8848 106.187 15.4165 105.044C16.8761 103.955 18.5356 104.077 19.4869 105.351Z" fill="#FDAD1C"/>
<path d="M16.1163 100.39C16.9493 101.743 16.4496 103.329 14.8983 104.283C13.2704 105.283 11.4767 104.986 10.6034 103.567C10.0055 102.595 10.1235 101.514 10.8555 101.064C11.2925 100.796 11.7731 100.892 12.0082 101.274C12.2433 101.656 12.16 102.083 11.7994 102.305C11.6137 102.419 11.4776 102.443 11.1626 102.395C11.0701 102.392 11.0239 102.39 10.9911 102.411C10.8163 102.518 10.838 102.896 11.0396 103.223C11.5367 104.031 12.7508 104.023 14.0727 103.21C15.351 102.425 15.8126 101.389 15.2752 100.515C14.9259 99.9475 14.3807 99.771 13.3791 99.9049L13.281 99.3784C14.7279 99.1363 15.5184 99.4178 16.1163 100.39Z" fill="#FDAD1C"/>
<path d="M13.3891 95.395C14.1495 96.9497 13.5673 98.5324 11.9541 99.3205C10.2256 100.165 8.40575 99.6841 7.68479 98.21C6.9976 96.8051 7.74038 95.2295 9.47448 94.3967L11.2995 98.1279C11.9388 97.8298 12.2971 97.5407 12.5414 97.1645C12.902 96.6174 12.9471 96.0675 12.6598 95.4802C12.2824 94.7086 11.7002 94.3938 10.582 94.355L10.6038 93.845C11.9295 93.7825 12.8541 94.301 13.3891 95.395ZM8.19155 97.991C8.46191 98.5438 8.97637 98.7491 9.78605 98.6532C10.165 98.6107 10.4411 98.533 10.7983 98.3585L9.81257 96.3431C9.63233 95.9746 9.48948 95.916 9.15527 96.0792C8.2334 96.5295 7.84799 97.2886 8.19155 97.991Z" fill="#FDAD1C"/>
<path d="M11.9954 92.3818L12.2678 93.0736L2.06268 93.4092L1.79028 92.7174L11.9954 92.3818Z" fill="#FDAD1C"/>
<path d="M9.46729 84.9645C10.1257 87.3759 8.62428 89.7651 5.9886 90.4839C4.57797 90.8687 3.08962 90.6767 1.95107 89.964C1.05216 89.3987 0.449046 88.5533 0.14854 87.4527C-0.499791 85.0784 1.02977 82.6947 3.65305 81.9793C6.30113 81.2571 8.80548 82.5407 9.46729 84.9645ZM1.26076 85.05C0.701726 85.6808 0.50724 86.4779 0.733462 87.3065C0.986714 88.2339 1.51217 88.7949 2.3548 89.0567C3.22216 89.3118 4.02091 89.2667 5.50576 88.8617C7.04015 88.4433 7.7421 88.0924 8.36855 87.4166C8.93993 86.7825 9.12545 86.0011 8.88574 85.1231C8.64597 84.2451 8.08903 83.6661 7.27452 83.4099C6.40715 83.1549 5.60841 83.1999 4.09882 83.6117C2.58916 84.0234 1.86585 84.3933 1.26076 85.05Z" fill="#FDAD1C"/>
<path d="M7.76192 76.2142C7.86152 76.9898 7.63103 77.5104 6.94709 78.0247L9.30064 77.7227C9.8095 77.6573 9.88054 77.5061 9.77439 76.6796L9.75639 76.5398L10.2144 76.481L10.6392 79.7866L10.1812 79.8454L10.1746 79.7946C10.0701 78.9809 9.96303 78.8524 9.45417 78.9178L3.33497 79.7031C2.78795 79.7733 2.70871 79.861 2.76912 80.3314L2.82795 80.7891L2.28094 80.8593L1.85832 78.6778L2.76156 78.5618C1.94113 78.2148 1.54338 77.736 1.44206 76.9477C1.26233 75.5492 2.49584 74.2795 4.25143 74.0542C6.07063 73.8207 7.57239 74.7394 7.76192 76.2142ZM2.15844 77.0885C2.28259 78.0547 3.31023 78.5044 4.88774 78.3019C6.35078 78.1141 7.21541 77.3958 7.09941 76.4931C6.9834 75.5904 5.98776 75.1883 4.34664 75.3989C2.85816 75.59 2.04575 76.2112 2.15844 77.0885Z" fill="#FDAD1C"/>
<path d="M7.1277 69.8479L7.07408 73.1418L6.61235 73.1343L6.61611 72.9036C6.62717 72.2244 6.46213 72.1191 6.11583 72.1134L2.28112 72.0511C1.93482 72.0454 1.57777 71.9115 1.56295 72.8215L1.5592 73.0522L1.09753 73.0447L1.15051 69.7891L1.61224 69.7966L1.60849 70.0273C1.59367 70.9373 1.95485 70.815 2.30115 70.8206L3.72476 70.8438L3.73054 70.4849C3.78047 67.4216 4.38167 66.739 5.4462 66.7564C6.45933 66.7728 7.16382 67.6305 7.1277 69.8479ZM7.1857 66.2846L6.72397 66.2771L6.72543 66.1874C6.73879 65.3671 6.65134 65.2247 6.13835 65.2163L2.29078 65.1538C1.77779 65.1454 1.6857 65.285 1.67234 66.1053L1.67088 66.195L1.20915 66.1875L1.26321 62.8678L1.72494 62.8753L1.72348 62.965C1.70987 63.7982 1.79738 63.9406 2.31037 63.9489L6.15794 64.0115C6.67093 64.0199 6.76302 63.8803 6.77657 63.0472L6.77803 62.9575L7.23976 62.965L7.1857 66.2846ZM4.3203 70.5073L4.3147 70.8534L5.98196 70.8805C6.43084 70.8878 6.50862 70.8378 6.51447 70.4789L6.51594 70.3892C6.53807 69.0305 6.34912 68.0274 5.40009 68.0121C4.451 67.9966 4.34014 69.2897 4.3203 70.5073Z" fill="#FDAD1C"/>
<path d="M3.09558 54.6658C2.96082 55.4881 3.02664 55.6417 3.53296 55.7246L7.3304 56.3461C7.83678 56.4289 7.94814 56.3043 8.08081 55.4947L8.08914 55.4441L8.54483 55.5186L8.02039 58.7192L7.5647 58.6446L7.57297 58.594C7.70774 57.7718 7.64191 57.6181 7.1356 57.5352L5.47731 57.2638L5.02131 60.0469L6.67953 60.3183C7.18584 60.4012 7.29727 60.2765 7.43204 59.4542L7.4403 59.4036L7.89599 59.4782L7.37155 62.6787L6.91586 62.6042L6.92413 62.5536C7.0568 61.744 6.99098 61.5903 6.48466 61.5074L2.68721 60.8859C2.18084 60.803 2.06947 60.9277 1.93681 61.7374L1.92231 61.8259L1.46655 61.7513L2.00142 58.4875L2.45711 58.5621L2.44261 58.6507C2.30994 59.4603 2.3757 59.614 2.88208 59.6968L4.37571 59.9412L4.83178 57.1581L3.33809 56.9137C2.83177 56.8309 2.72035 56.9555 2.58565 57.7778L2.57108 57.8663L2.11539 57.7918L2.6544 54.5027L3.11008 54.5772L3.09558 54.6658Z" fill="#FDAD1C"/>
<path d="M12.0739 49.2493C10.934 49.0329 10.3603 49.3446 10.0621 50.3526L9.20374 53.2537C8.90546 54.2617 9.21736 54.8351 10.2917 55.2728L10.1462 55.7646L8.08783 55.036L8.29879 54.3231C8.39336 54.0034 8.19601 53.8114 7.99504 53.6317C7.31186 53.0021 6.20847 52.6627 5.21213 52.3683L4.59712 52.1865C4.27728 52.092 3.82719 51.9857 3.56535 52.8708L3.49985 53.0921L3.05707 52.9612L4.91194 46.6919L5.35478 46.8228L5.28934 47.044C5.09294 47.7078 5.20049 47.8867 5.53261 47.9848L9.22276 49.0753C9.71477 49.2207 9.8045 49.2338 9.97183 48.6683L10.0955 48.2504L12.2193 48.7576L12.0739 49.2493ZM5.47365 49.2239C5.05542 49.1004 4.92517 49.0886 4.80147 49.5066L4.49231 50.5514C4.32142 51.1292 4.43488 51.243 5.45584 51.5446C6.45219 51.8391 7.55557 52.1785 8.23869 52.8081C8.31393 52.8705 8.36811 52.9132 8.41734 52.9277C8.56495 52.9713 8.62226 52.868 8.64407 52.7943L9.12418 51.1716C9.26607 50.6922 9.26219 50.3435 8.93008 50.2453L5.47365 49.2239Z" fill="#FDAD1C"/>
<path d="M13.0243 43.0861C12.786 43.6394 12.4235 43.8324 11.7415 43.7623C12.1243 44.5271 12.1397 45.3991 11.7897 46.2115C11.3434 47.2476 10.5123 47.6856 9.67578 47.3257C8.93358 47.0064 8.59281 46.2736 8.65202 45.0988C8.6767 44.4255 8.74475 44.0082 9.06523 42.6807L8.60579 42.483C8.07556 42.2549 7.75731 42.2157 7.47245 42.3582C7.21455 42.4706 6.9192 42.832 6.76198 43.197C6.51852 43.7622 6.52266 44.3362 6.77006 44.4427C6.80542 44.4579 6.8458 44.4613 6.95869 44.4262C7.17442 44.3794 7.36471 44.3914 7.51786 44.4573C7.87134 44.6094 8.0021 44.9866 7.84482 45.3516C7.66732 45.7638 7.26791 45.9129 6.82017 45.7203C5.97189 45.3553 5.76843 44.1094 6.3365 42.7907C6.66111 42.0371 7.07457 41.5311 7.54832 41.2744C7.97819 41.0546 8.41098 41.0872 9.15325 41.4066L11.5214 42.4254C12.1104 42.6789 12.385 42.6574 12.5271 42.3278C12.5676 42.2336 12.5761 42.1814 12.5866 41.9626C12.5867 41.8649 12.5952 41.8128 12.6155 41.7657C12.6409 41.7068 12.7252 41.6733 12.8077 41.7088C13.1493 41.8558 13.2526 42.5562 13.0243 43.0861ZM9.57186 42.8986C9.32942 43.8829 9.24941 44.3928 9.25711 44.8288C9.28134 45.4533 9.52829 45.8526 10.0232 46.0655C10.5533 46.2937 11.1146 46.0606 11.3428 45.5307C11.5609 45.0244 11.4997 44.3561 11.1906 43.8742C10.9705 43.5422 10.8207 43.4359 10.1139 43.1318L9.57186 42.8986Z" fill="#FDAD1C"/>
<path d="M12.6623 32.2671C12.3113 32.8637 12.3725 33.0632 12.671 33.2386L16.2311 35.3306C16.5296 35.5061 16.804 35.1915 16.9926 34.871L17.1096 34.6722L17.5076 34.9061L15.8628 37.7015L15.4648 37.4676L15.5623 37.3019C15.8158 36.871 15.8964 36.5317 15.5979 36.3563L12.3142 34.4267C11.7899 34.1038 11.7672 34.2689 11.4311 34.8149L11.1971 35.2126C10.9176 35.6878 10.9384 35.8041 11.3475 36.0445L11.9114 36.3758C14.1005 37.6623 15.3513 38.7987 14.4606 40.3125C13.96 41.1633 13.4359 41.346 12.7172 40.9237C12.3524 40.7093 12.219 40.3037 12.466 39.8839C12.7196 39.4529 13.0935 39.4496 13.3699 39.6121C13.7347 39.8265 13.5371 40.1118 13.6587 40.1833C13.7693 40.2483 13.8174 40.2171 13.9214 40.0402C14.1035 39.7309 14.0787 39.4189 13.9063 39.0797C13.488 38.2986 12.4266 37.6749 11.4758 37.1162L10.923 36.7913C10.629 36.6334 10.283 36.3111 9.75636 37.2062L9.6394 37.405L9.24133 37.1711L12.3814 31.8342L12.7794 32.0681L12.6623 32.2671Z" fill="#FDAD1C"/>
<path d="M17.2614 26.2262C16.9648 26.6127 17.0044 26.9823 17.4302 27.7123L19.4106 31.0715C20.1969 32.3848 20.4479 32.9002 20.6335 33.5432C20.8708 34.3712 20.7843 35.0317 20.3707 35.5708C19.9648 36.0998 19.3245 36.239 18.8767 35.8959C18.5103 35.6151 18.4408 35.1579 18.7139 34.802C18.9403 34.507 19.3054 34.4314 19.57 34.6342C19.6514 34.6966 19.7275 34.7871 19.7956 34.8879C19.8286 34.9293 19.8716 34.9784 19.8716 34.9784C19.9326 35.0252 20.028 34.9852 20.0982 34.8937C20.3481 34.5682 20.1754 33.6767 19.6828 32.7178L19.4593 32.2718L14.4315 31.0516C13.8839 30.9227 13.6009 30.9966 13.3512 31.3221L13.2653 31.434L12.8989 31.1532L14.7565 28.7323L15.1229 29.0131L14.959 29.2268C14.6936 29.5726 14.6712 29.7492 14.8544 29.8896C14.9053 29.9286 14.9921 29.9629 15.115 29.9924L18.5892 30.8781L16.9992 28.1897C16.8809 27.9859 16.7719 27.854 16.6702 27.776C16.4055 27.5732 16.1687 27.6502 15.8721 28.0367L15.7472 28.1994L15.3808 27.9186L16.9418 25.8843L17.3082 26.1651L17.2614 26.2262Z" fill="#FDAD1C"/>
<path d="M27.5937 25.7194C26.6845 24.9994 26.0316 25.0096 25.2997 25.7644L23.1933 27.9366C22.4614 28.6913 22.4716 29.3438 23.2201 30.2294L22.8631 30.5976L21.3778 28.9983L21.8955 28.4645C22.1275 28.2251 22.0418 27.9637 21.9471 27.7113C21.6341 26.837 20.8142 26.025 20.0682 25.3024L19.6076 24.8564C19.3682 24.6245 19.0188 24.3218 18.3761 24.9845L18.2155 25.1501L17.8839 24.829L22.436 20.1349L22.7676 20.456L22.6069 20.6217C22.125 21.1187 22.1373 21.327 22.386 21.5678L25.1489 24.2439C25.5174 24.6007 25.5907 24.6539 26.0013 24.2305L26.3047 23.9176L27.9508 25.3512L27.5937 25.7194ZM21.7588 22.6382C21.4456 22.3349 21.3357 22.2641 21.0322 22.577L20.2735 23.3594C19.854 23.792 19.9017 23.9454 20.6661 24.6858C21.4121 25.4082 22.2321 26.2203 22.5451 27.0947C22.5829 27.1847 22.611 27.2477 22.6479 27.2834C22.7584 27.3904 22.8571 27.3255 22.9107 27.2702L24.0889 26.0552C24.4371 25.6963 24.5954 25.3856 24.3467 25.1448L21.7588 22.6382Z" fill="#FDAD1C"/>
<path d="M31.2942 20.6889C30.8268 21.0694 30.4161 21.073 29.8438 20.6957C29.8293 21.5507 29.4396 22.3309 28.7534 22.8895C27.8781 23.602 26.9386 23.6062 26.3634 22.9005C25.8531 22.2744 25.89 21.4672 26.4862 20.4529C26.8196 19.8674 27.0729 19.5288 27.9713 18.4998L27.6555 18.1122C27.291 17.6649 27.0269 17.483 26.7083 17.4779C26.4277 17.4583 25.9986 17.6422 25.6903 17.8932C25.2129 18.2818 24.9509 18.7927 25.1211 19.0014C25.1454 19.0312 25.1796 19.053 25.296 19.0739C25.5089 19.1321 25.672 19.2308 25.7773 19.36C26.0204 19.6582 25.9617 20.0531 25.6534 20.3041C25.3053 20.5874 24.8822 20.5351 24.5744 20.1574C23.9911 19.4418 24.3871 18.2431 25.501 17.3363C26.1375 16.8182 26.7383 16.5607 27.2771 16.5519C27.7599 16.5556 28.1286 16.7846 28.6389 17.4108L30.2673 19.4086C30.6723 19.9055 30.9257 20.0134 31.2041 19.7867C31.2837 19.722 31.3154 19.6797 31.4259 19.4905C31.4712 19.404 31.5029 19.3617 31.5427 19.3293C31.5924 19.2888 31.6826 19.298 31.7393 19.3676C31.9743 19.6558 31.7418 20.3246 31.2942 20.6889ZM28.3197 18.9272C27.6493 19.6879 27.3425 20.103 27.1476 20.4932C26.8801 21.0581 26.9143 21.5263 27.2545 21.9437C27.619 22.391 28.2245 22.4437 28.6721 22.0794C29.0997 21.7313 29.3546 21.1104 29.3036 20.5402C29.262 20.1442 29.1785 19.9807 28.6924 19.3844L28.3197 18.9272Z" fill="#FDAD1C"/>
<path d="M32.6488 19.8369L32.0343 20.2559L29.4419 10.3857L30.0564 9.96667L32.6488 19.8369Z" fill="#FDAD1C"/>
</svg>
