<?xml version="1.0" encoding="utf-8"?>
<!-- Generator: Adobe Illustrator 28.2.0, SVG Export Plug-In . SVG Version: 6.00 Build 0)  -->
<!DOCTYPE svg PUBLIC "-//W3C//DTD SVG 1.1//EN" "http://www.w3.org/Graphics/SVG/1.1/DTD/svg11.dtd" [
	<!ENTITY ns_extend "http://ns.adobe.com/Extensibility/1.0/">
	<!ENTITY ns_ai "http://ns.adobe.com/AdobeIllustrator/10.0/">
	<!ENTITY ns_graphs "http://ns.adobe.com/Graphs/1.0/">
	<!ENTITY ns_vars "http://ns.adobe.com/Variables/1.0/">
	<!ENTITY ns_imrep "http://ns.adobe.com/ImageReplacement/1.0/">
	<!ENTITY ns_sfw "http://ns.adobe.com/SaveForWeb/1.0/">
	<!ENTITY ns_custom "http://ns.adobe.com/GenericCustomNamespace/1.0/">
	<!ENTITY ns_adobe_xpath "http://ns.adobe.com/XPath/1.0/">
]>
<svg version="1.1" id="Слой_1" xmlns:x="&ns_extend;" xmlns:i="&ns_ai;" xmlns:graph="&ns_graphs;"
	 xmlns="http://www.w3.org/2000/svg" xmlns:xlink="http://www.w3.org/1999/xlink" x="0px" y="0px"
	 viewBox="0 0 1090.2176514 1084.2176514" style="enable-background:new 0 0 1090.2176514 1084.2176514;" xml:space="preserve">
<style type="text/css">
	.st0{fill:none;}
	.st1{fill:#FFFDC2;}
</style>
<metadata>
	<sfw  xmlns="&ns_sfw;">
		<slices></slices>
		<sliceSourceBounds  bottomLeftOrigin="true" height="1100.5424805" width="1100.5390625" x="-75.7705078" y="-274.7714844">
			</sliceSourceBounds>
	</sfw>
</metadata>
<g>
	<circle class="st0" cx="534.5" cy="547.7177124" r="465.5"/>
	<path class="st1" d="M332.1640625,128.3612518l-32.0751953,15.7749023l-2.0429688-4.1533203l1.5908203-0.7822266
		c7.1572266-3.5200195,7.7353516-4.3525391,5.9101562-8.0639648l-23.2060547-47.1860428
		c-1.8251953-3.7114258-2.8378906-3.762207-9.9951172-0.2421875l-1.5908203,0.7822266l-2.0419922-4.152832l31.7216797-15.6010742
		c5.2138672-2.5639648,9.9794922-4.0302734,13.8564453-4.1806641c6.2109375-0.3115234,12.4833984,3.5170898,15.2646484,9.1723633
		c2.2167969,4.5063477,2.1367188,9.9228516-0.2275391,14.4873047c-1.3828125,2.7651367-2.9365234,4.5166016-6.7431641,7.4863281
		c13.0605469-3.7895508,21.2363281-1.4458008,25.5390625,7.3022461
		C353.4257812,109.784584,347.4511719,120.8431778,332.1640625,128.3612518z M309.7519531,67.616127
		c-2.4638672-0.3242188-6.1259766,0.7084961-10.1904297,2.7075195l-3.5341797,1.7382812
		c-4.5957031,2.2597656-5.3544922,3.840332-3.6591797,7.2866211l9.9082031,20.1464844l7.8642578-3.8676758
		c11.3105469-5.5625,13.9882812-11.0493164,9.7294922-19.7089844
		C317.4365234,70.9696426,313.8896484,67.9960098,309.7519531,67.616127z M325.0263672,95.5492325
		c-3.2158203,0.1552734-7.2763672,1.4936523-12.9316406,4.2749023l-7.7763672,3.8242188l10.4296875,21.2070312
		c2.390625,4.8603592,3.3564453,5.2627029,7.8632812,3.0463867l3.7109375-1.8251953
		c5.5673828-2.737793,8.9736328-5.1811523,11.0175781-7.9423828c2.6210938-3.3735352,2.5224609-8.4829102-0.2158203-14.0498047
		C334.2558594,98.2523575,330.1347656,95.451088,325.0263672,95.5492325z"/>
	<path class="st1" d="M429.0517578,94.1771622l-1.1005859-4.4951172l1.7216797-0.421875
		c7.7470703-1.8969727,8.4902344-2.5859375,7.5068359-6.6030273L423.7353516,27.758707l-32.0400391,7.8461895l13.4443359,54.8989258
		c0.9833984,4.0166016,1.9619141,4.2841797,9.7089844,2.3867188l1.8164062-0.4448242l1.1015625,4.4951172l-31.4667969,7.7060547
		l-1.1005859-4.4951172l1.7216797-0.421875c7.7470703-1.8969727,8.4902344-2.5859375,7.5068359-6.6030273l-12.5078125-51.0727539
		c-0.9833984-4.0170898-1.9609375-4.284668-9.7080078-2.387207l-1.7216797,0.4213867l-1.1015625-4.4951172l74.1230469-18.1523418
		l1.1005859,4.4956055l-1.7216797,0.4213867c-7.7470703,1.8969727-8.4902344,2.5864258-7.5068359,6.6030273l12.5078125,51.0732422
		c0.9833984,4.0166016,1.9619141,4.2841797,9.7089844,2.3867188l1.7207031-0.4213867l1.1015625,4.4951172L429.0517578,94.1771622z"
		/>
	<path class="st1" d="M493.8525391,85.4296036c-5.9794922,0.5771484-9.921875-1.3178711-13.7050781-6.690918l1.75,18.1342773
		c0.3789062,3.9208984,1.5234375,4.5029297,7.8945312,3.8881836l1.078125-0.1040039l0.3408203,3.5283203l-25.4863281,2.4599609
		l-0.3398438-3.5288086l0.3916016-0.0375977c6.2734375-0.6054688,7.2851562-1.3959961,6.9072266-5.3168945l-4.5507812-47.1489258
		c-0.40625-4.2148438-1.0605469-4.8442383-4.6875-4.4941406l-3.5292969,0.3408203l-0.40625-4.215332l16.8535156-2.7148438
		l0.671875,6.9594727c2.8632812-6.2124023,6.6357422-9.1489258,12.7128906-9.7353516
		c10.7832031-1.0405273,20.234375,8.7324219,21.5400391,22.2592773
		C512.640625,73.0301895,505.2236328,84.3324356,493.8525391,85.4296036z M488.4951172,42.2172012
		c-7.4501953,0.7192383-11.1513672,8.496582-9.9785156,20.6513672c1.0878906,11.2724609,6.3955078,18.081543,13.3544922,17.409668
		c6.9599609-0.6713867,10.2880859-8.2148438,9.0683594-20.8598633
		C499.8320312,47.9496231,495.2587891,41.5643692,488.4951172,42.2172012z"/>
	<path class="st1" d="M540.0478516,83.7284317c-11.8154297-0.1923828-21.0917969-11.1772461-20.8720703-24.6669922
		c0.2236328-13.7851562,9.8515625-24.3637695,21.8642578-24.168457
		c11.6191406,0.1889648,20.8935547,11.2724609,20.6738281,24.762207
		C561.4931641,73.2435684,551.8642578,83.9208145,540.0478516,83.7284317z M540.9707031,39.1268692
		c-7.3847656-0.1201172-11.2382812,6.7119141-11.4560547,20.1030273
		c-0.2119141,12.9970703,3.5126953,20.1494141,10.6025391,20.2646484S551.1621094,72.5829239,551.375,59.4872208
		C551.5869141,46.4896622,547.8632812,39.2391739,540.9707031,39.1268692z"/>
	<path class="st1" d="M616.7900391,101.366127c0.2304688-8.9042969-2.84375-12.8652344-10.8544922-13.8764648l-40.3515625-5.0917969
		l0.4443359-3.5175781l0.6835938,0.0864258c6.2529297,0.7890625,7.4140625,0.2407227,7.9072266-3.6674805l3.6982422-29.3105469
		c0.4931641-3.9077148-0.4951172-4.7275391-6.7480469-5.5166016l-0.390625-0.0493164l0.4443359-3.5170898l24.71875,3.1191406
		l-0.4443359,3.5170898l-0.390625-0.0493164c-6.3505859-0.8012695-7.5117188-0.2529297-8.0048828,3.6552734L584,74.8949356
		c-0.4931641,3.9082031-0.1884766,4.6416016,6.8466797,5.5292969l6.7412109,0.8505859
		c7.1318359,0.8999023,7.4140625,0.2407227,7.9072266-3.6674805l3.5009766-27.7470703
		c0.4931641-3.9082031-0.4951172-4.7275391-6.8457031-5.5292969l-0.390625-0.0493164l0.4433594-3.5170898l24.71875,3.1191406
		l-0.4433594,3.5175781l-0.390625-0.0493164c-6.2539062-0.7890625-7.4140625-0.2407227-7.9072266,3.6669922l-3.6005859,28.5292969
		c-0.4931641,3.9077148-0.4814453,4.6040039,4.0126953,5.1713867l3.3222656,0.4189453l-1.2167969,16.7207031L616.7900391,101.366127
		z"/>
	<path class="st1" d="M646.4707031,97.29142c-12.9111328-3.1660156-19.3867188-14.3862305-16.1035156-27.7758789
		c3.5185547-14.3466797,15.3027344-22.7114258,27.5449219-19.7094727c11.6689453,2.8613281,17.3125,14.9926758,13.6982422,29.315918
		l-30.9873047-7.5986328c-1.3857422,5.2368164-1.4414062,8.7714844-0.4238281,12.0629883
		c1.4550781,4.8183594,4.4775391,7.7900391,9.3554688,8.9863281c6.4082031,1.5712891,11.1289062-0.3129883,16.8554688-6.7158203
		L669.3125,88.494545C663.1630859,96.6190567,655.5576172,99.5194473,646.4707031,97.29142z M656.7128906,53.8719864
		c-4.5908203-1.1259766-8.3320312,0.8974609-11.7470703,6.1435547c-1.6132812,2.4433594-2.5117188,4.4536133-3.2392578,7.418457
		l16.7373047,4.1040039c3.0605469,0.7504883,4.109375,0.1967773,4.7890625-2.5771484
		C665.1298828,61.3094864,662.546875,55.3026505,656.7128906,53.8719864z"/>
	<path class="st1" d="M690.1914062,110.4525528c-11.5205078-4.043457-16.2226562-15.9204102-11.5917969-29.1137695
		c4.8583984-13.84375,16.9882812-20.7524414,29.0664062-16.5136719c8.2695312,2.9023438,12.7988281,9.918457,10.6132812,16.1435547
		c-1.3037109,3.7163086-4.6328125,5.4702148-7.8847656,4.3286133c-3.2519531-1.1411133-4.8242188-4.0932617-3.7480469-7.1591797
		c0.5537109-1.5795898,1.2519531-2.378418,3.3583984-3.6220703c0.5664062-0.4267578,0.8505859-0.6401367,0.9482422-0.9189453
		c0.5214844-1.4868164-1.4375-3.6352539-4.2246094-4.6137695c-6.875-2.4125977-14.0693359,3.5151367-18.0146484,14.7573242
		c-3.8154297,10.8706055-1.5498047,19.2836914,5.8828125,21.8920898c4.8310547,1.6958008,8.9355469,0.1098633,14.2568359-5.5361328
		l3.1337891,2.6655273C704.5361328,111.2084122,698.4609375,113.3548965,690.1914062,110.4525528z"/>
	<path class="st1" d="M729.1074219,126.3451309c-11.1044922-5.0766602-14.7050781-17.3325195-8.8916016-30.0493164
		c6.1005859-13.3432617,18.8095703-19.1181641,30.4511719-13.7963867c7.9707031,3.644043,11.8417969,11.043457,9.0986328,17.043457
		c-1.6376953,3.5825195-5.1123047,5.0253906-8.2460938,3.5927734c-3.1347656-1.4331055-4.4316406-4.5161133-3.0810547-7.4716797
		c0.6962891-1.5224609,1.4638672-2.2539062,3.6738281-3.3007812c0.6044922-0.3735352,0.90625-0.5600586,1.0292969-0.8286133
		c0.6542969-1.4331055-1.1005859-3.7514648-3.7871094-4.9794922c-6.6269531-3.0292969-14.3310547,2.2182617-19.2851562,13.0541992
		c-4.7900391,10.4780273-3.3007812,19.0625,3.8642578,22.3374023c4.65625,2.1289062,8.8886719,0.9238281,14.7021484-4.2138672
		l2.8779297,2.9399414C743.3232422,128.4051971,737.078125,129.9886932,729.1074219,126.3451309z"/>
	<path class="st1" d="M767.8476562,146.547287c-11.5009766-6.6679688-14.5615234-19.255867-7.6464844-31.1826248
		c7.4091797-12.7783203,21.0703125-17.4926758,31.9746094-11.1704102
		c10.3925781,6.0258789,12.3984375,19.2543945,4.9042969,31.9834061l-27.6015625-16.0029373
		c-2.8017578,4.6357422-3.8486328,8.0127029-3.796875,11.4575272c0.0410156,5.0322266,2.1064453,8.7338867,6.4511719,11.2529297
		c5.7080078,3.3095703,10.7675781,2.828125,18.0634766-1.7060547l2.0429688,3.347168
		C784.0546875,150.594162,775.9404297,151.2396698,767.8476562,146.547287z M789.8808594,107.7587051
		c-4.0888672-2.3710938-8.2470703-1.480957-13,2.5932617c-2.234375,1.8911133-3.6621094,3.5678711-5.1933594,6.2089844
		l14.9082031,8.6435547c2.7265625,1.5805664,3.8876953,1.34375,5.3203125-1.1269531
		C795.8671875,117.2621231,795.078125,110.7714005,789.8808594,107.7587051z"/>
	<path class="st1" d="M789.640625,159.8202362l-4.6992188-3.2470703l63.6181641-45.8090897l4.6982422,3.2470703
		L789.640625,159.8202362z"/>
	<path class="st1" d="M816.1865234,176.22258L845.625,141.5380096c5.1826172-6.105957,11.0117188-9.4243164,17.4902344-9.9541016
		c6.4755859-0.5297852,12.9677734,1.9658203,19.4746094,7.4887695c6.7070312,5.6918945,10.1904297,11.706543,10.4541016,18.0424805
		c0.2607422,6.3359375-2.5175781,12.9326172-8.3369141,19.7895508l-6.7568359-5.7348633
		c4.4609375-5.2553711,6.6425781-10.0327148,6.5478516-14.3334961c-0.0966797-4.2998047-2.421875-8.3842773-6.9755859-12.2490234
		c-4.3544922-3.6958008-8.6777344-5.2983398-12.96875-4.8076172s-8.5400391,3.2138672-12.7451172,8.168457l-24.0224609,28.3037109
		l33.6337891,28.5463867l-4.8427734,5.7060547L816.1865234,176.22258z"/>
	<path class="st1" d="M916.9345703,195.8710175l-1.5996094,1.4604492
		c-5.3857422,0.9160156-10.0097656,1.9365234-13.8710938,3.0605469c-3.8623047,1.125-7.2333984,2.4458008-10.1142578,3.9643555
		c-2.8808594,1.5170898-5.484375,3.3388672-7.8115234,5.4633789c-3.7822266,3.4516602-5.6962891,6.6860352-5.7412109,9.7050781
		c-0.0449219,3.0180664,1.2607422,5.9824219,3.9160156,8.8916016c2.7880859,3.0546875,6.2060547,4.4882812,10.2587891,4.3022461
		c4.0498047-0.1865234,8.3554688-2.3598633,12.9140625-6.5200195l17.4560547-15.9311523l5.9072266,6.4736328l-35.7851562,32.6586914
		l-4.6464844-5.0913086l5.5976562-6.5751953l-0.3984375-0.4365234c-2.7802734,0.8491211-5.7578125,0.9223633-8.9316406,0.2197266
		s-6.1552734-2.581543-8.9433594-5.6362305c-4.2041016-4.6074219-6.1484375-9.3662109-5.8300781-14.2763672
		c0.3173828-4.9116211,2.9003906-9.5791016,7.7490234-14.0048828c2.1826172-1.9912109,4.6298828-3.7148438,7.3457031-5.1708984
		c2.7148438-1.456543,6.0126953-2.7104492,9.8955078-3.7651367c3.8808594-1.0541992,8.5800781-1.9204102,14.0947266-2.597168
		l-1.2636719-5.9125977c-1.1103516-5.2089844-0.3076172-9.0517578,2.4082031-11.5302734
		c1.4550781-1.3276367,3.4501953-2.3051758,5.9892578-2.9331055l6.2763672-1.5952148l2.1074219,7.2758789l-4.1513672,0.8554688
		c-1.6435547,0.3432617-2.9248047,0.9360352-3.8457031,1.7763672c-1.6484375,1.5048828-2.0800781,3.8081055-1.2910156,6.9111328
		L916.9345703,195.8710175z"/>
	<path class="st1" d="M883.0458984,274.3734436l58.7158203-41.1279144l3.9541016,5.6455078l-6.3955078,5.8022461
		l0.2832031,0.4033203c3.03125-0.3618164,6.1865234,0.1938477,9.4628906,1.6669922
		c3.2744141,1.4726562,6.15625,3.9829102,8.6416016,7.5317383c3.9169922,5.5917816,5.4335938,11.1625824,4.5517578,16.7094574
		c-0.8837891,5.5483398-4.4111328,10.7241211-10.5839844,15.5288086c1.1943359,2.8491211,2.0400391,5.5444336,2.5361328,8.0820312
		l-6.4287109,1.9785156c-0.4257812-1.8657227-1.0839844-3.890625-1.9707031-6.0737305
		c-11.4648438,6.7475586-20.2460938,5.7661133-26.3476562-2.9443359c-2.75-3.9257812-3.8476562-7.7250977-3.2949219-11.3979492
		c0.5517578-3.6743164,2.6035156-6.7529297,6.1523438-9.2387695c3.9238281-2.7485352,7.8369141-3.4868164,11.7363281-2.2099609
		c3.8994141,1.2758789,7.3183594,4.0112305,10.2558594,8.2050781c1.2050781,1.7202148,2.3486328,3.5244141,3.4306641,5.4121094
		c4.0537109-3.4819336,6.2460938-6.9599609,6.5751953-10.4370117c0.3300781-3.4770508-0.6914062-6.9091797-3.0644531-10.2963867
		c-2.75-3.925766-6.1708984-6.3774261-10.2636719-7.3583832c-4.09375-0.9794922-8.5058594,0.1875-13.2373047,3.5014648
		l-39.6806641,27.7953949L883.0458984,274.3734436z M926.8261719,273.8836975
		c-1.9902344,1.394043-3.0761719,2.8764648-3.2578125,4.4462891c-0.1835938,1.5703125,0.4042969,3.3232422,1.7597656,5.2587891
		c1.8076172,2.5810547,4.0371094,3.7041016,6.6884766,3.3701172c2.6513672-0.3349609,6.0029297-1.8413086,10.0585938-4.5205078
		c-1.0664062-1.9785156-2.1826172-3.8027344-3.3496094-5.46875c-1.6572266-2.3666992-3.5039062-3.8569336-5.5390625-4.4750977
		C931.1494141,271.8768616,929.0302734,272.3397522,926.8261719,273.8836975z"/>
	<path class="st1" d="M944.5771484,328.1810608c-2.2509766-4.6733398-2.7148438-9.0400391-1.3916016-13.1015625
		c1.3222656-4.0625,4.6455078-7.3740234,9.96875-9.9379883l28.4785156-13.7158203l3.8027344,7.8959961l-26.9707031,12.9892578
		c-3.7255859,1.7949219-6.0712891,3.9985352-7.0341797,6.6123047c-0.9648438,2.6132812-0.7910156,5.2802734,0.5195312,8.0014648
		c1.765625,3.6665039,4.4550781,5.9975586,8.0664062,6.9902344c3.6103516,0.9936523,8.1083984,0.1938477,13.4902344-2.3984375
		l22.2685547-10.7250977l3.8027344,7.8959961l-26.9697266,12.9892578c-3.7265625,1.7949219-6.0722656,3.9985352-7.0351562,6.6123047
		c-0.9648438,2.6132812-0.7900391,5.2802734,0.5205078,8.0014648c1.6796875,3.4892578,4.3398438,5.7602539,7.9804688,6.8125
		c3.6386719,1.0517578,8.1503906,0.2827148,13.5332031-2.3095703l22.2685547-10.7250977l3.8027344,7.8959961l-43.6494141,21.0224609
		l-2.9482422-6.121582l6.5849609-4.4829102l-0.2138672-0.4438477c-2.5839844-0.0668945-5.2216797-0.855957-7.9150391-2.3632812
		c-2.6933594-1.5083008-4.9658203-4.1845703-6.8173828-8.0288086c-1.5673828-3.253418-2.2539062-6.4199219-2.0615234-9.4995117
		c0.1914062-3.0805664,1.3925781-5.8071289,3.6005859-8.1826172l-0.2138672-0.4433594
		c-2.9365234-0.0444336-5.8203125-1.0410156-8.6533203-2.9912109
		C948.5576172,334.4779358,946.2861328,331.7294006,944.5771484,328.1810608z"/>
	<path class="st1" d="M956.2001953,416.9491272c-0.9863281-3.269043-1.5556641-6.1826172-1.7099609-8.7412109
		c-0.1552734-2.5595703-0.1298828-5.2060547,0.0742188-7.9414062l7.2587891-2.1889648
		c-0.3857422,2.5849609-0.5136719,5.2285156-0.3847656,7.9326172c0.1298828,2.7026367,0.6962891,5.7202148,1.7001953,9.0522461
		c1.6494141,5.4682617,3.921875,8.9130859,6.8193359,10.3374023c2.8974609,1.4228516,6.2646484,1.5571289,10.0976562,0.4013672
		l2.9228516-0.8813477c1.5703125-0.4731445,3.0566406-0.8876953,4.4589844-1.2416992
		c1.4003906-0.3544922,3.0419922-0.7109375,4.921875-1.0722656l-0.1699219-0.565918
		c-3.4599609-0.3291016-6.3779297-1.5917969-8.7529297-3.7890625c-2.3769531-2.1987305-4.1054688-5.0874023-5.1855469-8.6699219
		c-1.7441406-5.7836914-1.1318359-10.972168,1.8369141-15.5698242c2.9667969-4.597168,8.3476562-8.0708008,16.1416016-10.4208984
		c7.9199219-2.3876953,14.5009766-2.5043945,19.7451172-0.3476562c5.2431641,2.1557617,8.8046875,6.3452148,10.6806641,12.5673828
		c1.0605469,3.5195312,1.2216797,6.7285156,0.484375,9.6245117c-0.7382812,2.8969727-2.1474609,5.4462891-4.2246094,7.6503906
		l0.1425781,0.4711914l7.6005859-1.0571289l1.9892578,6.5996094l-48.0820312,14.496582
		c-4.5253906,1.3642578-8.6142578,1.7900391-12.2646484,1.2807617c-3.6503906-0.5112305-6.8203125-2.2119141-9.5097656-5.1040039
		C960.1035156,426.8797913,957.9052734,422.6058655,956.2001953,416.9491272z M985.7304688,409.4857483
		c1.0039062,3.3305664,2.5683594,5.7387695,4.6972656,7.2231445c2.1259766,1.4833984,4.6220703,2.2573242,7.4873047,2.3193359
		c2.8632812,0.0625,5.8994141-0.3901367,9.1044922-1.3564453l0.6601562-0.1992188
		c5.0273438-1.515625,8.7402344-3.6992188,11.1396484-6.546875c2.3964844-2.8486328,2.8955078-6.5986328,1.4931641-11.2495117
		c-2.5771484-8.5483398-9.7744141-11.0405273-21.5898438-7.4780273c-5.8457031,1.762207-9.7666016,4.109375-11.7617188,7.0429688
		C984.9648438,402.17276,984.5546875,405.5877991,985.7304688,409.4857483z"/>
	<path class="st1" d="M966.8388672,451.7948303l9.9960938-1.7163086l-1.1669922-6.793457l6.7939453-1.1665039l1.1669922,6.793457
		l53.8632812-9.2480469l1.1826172,6.890625l-8.7617188,2.503418l0.0664062,0.3881836
		c3.1552734,0.9228516,5.8779297,2.5205078,8.1660156,4.7924805c2.2880859,2.2705078,3.7773438,5.4121094,4.4658203,9.4243164
		c1.0771484,6.2749023-0.2949219,11.4736328-4.1162109,15.59375c-3.8232422,4.1191406-9.5517578,6.8354492-17.1855469,8.1459961
		c-7.5058594,1.2890625-13.8359375,0.5927734-18.9912109-2.0844727c-5.15625-2.6787109-8.2724609-7.15625-9.3496094-13.4316406
		c-0.65625-3.8183594-0.4042969-7.1083984,0.7529297-9.8706055c1.15625-2.7636719,3.046875-5.0361328,5.6728516-6.8188477
		l-0.0996094-0.5825195c-1.9736328,0.5385742-3.7783203,0.9814453-5.4169922,1.3300781
		c-1.6386719,0.3466797-3.2666016,0.6606445-4.8847656,0.9384766l-3.8818359,0.6665039l5.5488281,32.3178711l-6.7929688,1.1665039
		l-5.5488281-32.3178711l-9.9970703,1.7163086L966.8388672,451.7948303z M999.6699219,468.438385
		c0.7333984,4.2700195,2.8300781,7.2729492,6.2929688,9.0107422c3.4609375,1.7363281,8.0712891,2.1108398,13.8300781,1.1220703
		c5.6298828-0.9663086,9.7773438-2.7949219,12.4472656-5.484375c2.6679688-2.6904297,3.6533203-6.0722656,2.953125-10.1484375
		c-0.7773438-4.5292969-2.9140625-7.659668-6.4082031-9.390625c-3.4941406-1.7319336-7.9589844-2.1303711-13.3935547-1.1972656
		l-0.4853516,0.0834961c-6.3417969,1.0888672-10.640625,3.0087891-12.8984375,5.7617188
		C999.7480469,460.9471741,998.9697266,464.3622131,999.6699219,468.438385z"/>
	<path class="st1" d="M1073.6064453,509.0585022l-26.3583984,1.28125c-1.4433594,0.0698242-2.8554688,0.0893555-4.2363281,0.0581055
		c-1.3818359-0.0317383-2.8310547-0.0766602-4.3447266-0.1342773l0.0234375,0.4916992
		c2.7490234,1.1142578,5.1025391,2.8901672,7.0615234,5.3257141c1.9580078,2.434082,3.0419922,5.7827148,3.2490234,10.0458984
		c0.2675781,5.5078125-1.0654297,9.8613281-3.9990234,13.0600586c-2.9345703,3.1987305-7.4833984,4.9482422-13.6455078,5.2475586
		l-30.8837891,1.5014648l-0.4248047-8.7539062l29.2109375-1.4199219c4.3925781-0.2133789,7.609375-1.3061523,9.6503906-3.2788086
		c2.0390625-1.972168,2.9775391-4.6640625,2.8115234-8.0727539c-0.2041016-4.1972656-1.890625-7.4667969-5.0615234-9.8100586
		c-3.1699219-2.3442383-7.8701172-3.3638-14.0986328-3.0610657l-46.9150391,2.2807922l-0.4257812-8.7539368l97.9619141-4.7617188
		L1073.6064453,509.0585022z"/>
	<path class="st1" d="M1031.8085938,631.3710327l-38.0068359-4.7705078l0.8583984-6.8393555l8.6357422-0.0078125
		l0.0605469-0.4882812c-2.4501953-1.5654297-4.4355469-3.7993164-5.9570312-6.7021484
		c-1.5205078-2.9047852-2.0234375-6.4072266-1.5087891-10.5112305c0.6708984-5.3413086,2.7460938-9.3652344,6.2294922-12.0698242
		c3.4814453-2.706543,8.2519531-3.6782227,14.3095703-2.9179688l30.6796875,3.8505859l-1.0917969,8.6958008l-29.0185547-3.6425781
		c-4.3642578-0.5473633-7.7255859,0.0058594-10.0830078,1.6621094c-2.3583984,1.6547852-3.7412109,4.1113281-4.1503906,7.3691406
		c-0.515625,4.1035156,0.5839844,7.5986328,3.2988281,10.4873047c2.7138672,2.8867188,7.1972656,4.7241211,13.4501953,5.5092773
		l13.1904297,1.6552734c2.0839844,0.2617188,4.2392578,0.0859375,6.4677734-0.527832
		c2.2255859-0.6137695,4.6523438-1.8818359,7.2744141-3.8007812c2.9072266-2.0839844,5.3710938-3.5283203,7.3916016-4.3325195
		c2.0195312-0.8056641,3.8759766-1.1010742,5.5703125-0.8886719c3.4521484,0.4335938,6.2226562,1.9379883,8.3154297,4.5175781
		c2.0908203,2.5776367,2.8300781,6.3095703,2.2167969,11.1948242c-0.4980469,3.972168-2.0673828,6.9853516-4.7070312,9.0361328
		c-2.6386719,2.050293-6.1738281,2.7978516-10.6025391,2.2416992l1.0429688-8.3046875
		c1.9541016,0.2451172,3.5791016,0.0678711,4.8789062-0.5288086c1.2988281-0.5986328,2.0712891-1.8740234,2.3173828-3.828125
		c0.2041016-1.6289062-0.0800781-2.921875-0.8535156-3.878418c-0.7724609-0.9575195-1.7792969-1.5131836-3.015625-1.668457
		c-1.4990234-0.1884766-2.9375,0.0776367-4.3183594,0.7978516c-1.3808594,0.7197266-3.4882812,2.0927734-6.3222656,4.1186523
		c-2.9091797,2.0820312-5.6132812,3.4638672-8.1123047,4.1425781
		C1037.7480469,631.6205444,1034.9355469,631.7636108,1031.8085938,631.3710327z"/>
	<path class="st1" d="M1011.0058594,689.9266968l-30.2626953-7.6513672l1.6894531-6.6826172l8.5712891,1.0498047
		l0.1201172-0.4775391c-2.2402344-1.8535156-3.9365234-4.3139648-5.0908203-7.3813477
		c-1.1542969-3.0688477-1.2246094-6.6069336-0.2109375-10.6162109c1.3193359-5.2197266,3.8730469-8.9589844,7.6601562-11.2167969
		c3.7871094-2.2592773,8.640625-2.6401367,14.5595703-1.1435547l55.5625,14.0478516l-2.1484375,8.496582l-25.5849609-6.46875
		l-8.6416016,34.1772461l-6.6826172-1.6894531l8.6416016-34.1772461l-21.671875-5.4790039
		c-4.2646484-1.0786133-7.6679688-0.940918-10.2109375,0.4145508c-2.5429688,1.3535156-4.2167969,3.6220703-5.0214844,6.8051758
		c-1.0136719,4.0097656-0.3193359,7.6210938,2.0849609,10.8364258c2.4033203,3.2133789,6.5966797,5.578125,12.5791016,7.0908203
		l6.2060547,1.5688477L1011.0058594,689.9266968z"/>
	<path class="st1" d="M956.3173828,702.4613647l-9.3515625,24.6782227l-6.4453125-2.4423828l11.4091797-30.1108398
		c1.8378906-4.8500977,4.6601562-6.5532227,8.4658203-5.1113281c0.7988281,0.3027344,1.703125,0.9248047,2.7138672,1.8706055
		c1.0107422,0.9443359,2.1044922,2.5517578,3.2792969,4.8232422l7.9550781,15.9663086
		c1.4833984-0.2109375,3.1142578-0.715332,4.8925781-1.5161133c1.7773438-0.800293,3.9208984-2.1992188,6.4335938-4.1958008
		c2.8115234-2.2353516,5.6914062-3.5825195,8.640625-4.0444336c2.9472656-0.4628906,6.2939453,0.015625,10.0390625,1.4345703
		c5.6474609,2.1396484,9.5722656,5.6279297,11.7773438,10.4648438c2.2041016,4.8364258,2.1083984,10.4160156-0.2880859,16.7397461
		c-2.4648438,6.5058594-6.0126953,10.8662109-10.6416016,13.0791016c-4.6289062,2.2114258-9.953125,2.1782227-15.9677734-0.1010742
		c-3.9296875-1.4887695-7.3789062-4.2880859-10.3505859-8.3969727c-2.9697266-4.1103516-6.171875-9.6938477-9.6064453-16.7504883
		l-6.7861328-14.0493164c-0.6943359-1.315918-1.2783203-2.2749023-1.7529297-2.8759766
		c-0.4736328-0.6005859-1.0185547-1.0175781-1.6328125-1.25c-0.6123047-0.2324219-1.1308594-0.2543945-1.5556641-0.0629883
		C957.1220703,700.8007202,956.7128906,701.4169312,956.3173828,702.4613647z M987.453125,713.9437866
		c-3.5117188,2.5996094-6.8251953,4.1171875-9.9384766,4.5527344c2.4414062,4.855957,4.7822266,8.6386719,7.0205078,11.3476562
		c2.2382812,2.7075195,4.7988281,4.6088867,7.6845703,5.7026367c4.1738281,1.581543,7.6845703,1.7172852,10.5332031,0.4106445
		c2.8466797-1.3085938,4.96875-3.8037109,6.3642578-7.4868164c1.3730469-3.6230469,1.3691406-6.9047852-0.0068359-9.8481445
		c-1.3769531-2.9438477-4.0302734-5.1601562-7.9580078-6.6489258c-2.8242188-1.0698242-5.2246094-1.453125-7.1992188-1.1479492
		C991.9765625,711.1298218,989.8115234,712.168396,987.453125,713.9437866z"/>
	<path class="st1" d="M946.7294922,764.6586304l65.0546875,36.9956055l-4.3320312,7.6181641l-22.9404297-13.0454102
		l-12.1699219,21.3994141l-5.9912109-3.4077148l12.1689453-21.3994141l-30.1298828-17.1347656l-6.2314453,10.956543
		c-2.2392578,3.9375-4.7167969,6.3037109-7.4355469,7.0996094c-2.7177734,0.7944336-6.0732422,0.0576172-10.0683594-2.2143555
		l-2.3115234-1.3144531l4.3320312-7.6181641l1.1132812,0.6328125c2.2832031,1.2983398,4.1367188,1.8232422,5.5605469,1.5761719
		c1.4257812-0.2475586,2.7050781-1.3696289,3.8398438-3.3666992L946.7294922,764.6586304z"/>
	<path class="st1" d="M925.1845703,798.5795288l3.1962891-4.7338867l46.5029297,63.1166992L971.6875,861.696228
		L925.1845703,798.5795288z"/>
	<path class="st1" d="M884.8623047,854.2792358l3.5195312,3.0048828l-1.1503906,1.3476562
		c-5.1787109,6.0664062-5.3798828,7.0600586-2.234375,9.7451172l42.9873047,36.6982422l21.4179688-25.0878906
		l-42.9873047-36.6982422c-3.1455078-2.6855469-4.0957031-2.3310547-9.2744141,3.7348633l-1.2148438,1.4228516l-3.5195312-3.0048828
		l21.0341797-24.6386719l3.5205078,3.0048828l-1.1513672,1.3481445c-5.1787109,6.065918-5.3789062,7.0595703-2.234375,9.7451172
		l39.9921875,34.140625c3.1445312,2.6855469,4.0947266,2.3310547,9.2734375-3.7353516l1.1503906-1.3476562l3.5205078,3.0048828
		l-49.5488281,58.0400391l-3.5205078-3.0053711l1.1513672-1.3476562c5.1787109-6.0664062,5.3789062-7.0600586,2.234375-9.7451172
		l-39.9921875-34.1411133c-3.1445312-2.6850586-4.0947266-2.3310547-9.2734375,3.7353516l-1.1513672,1.3481445l-3.5195312-3.0053711
		L884.8623047,854.2792358z"/>
	<path class="st1" d="M837.4042969,899.2772827c4.5107422-3.9672852,8.8164062-4.737793,15.0283203-2.5947266l-12.03125-13.6796875
		c-2.6015625-2.9580078-3.8701172-2.7602539-8.6767578,1.4667969l-0.8134766,0.715332l-2.3408203-2.6616211l19.2255859-16.9086914
		l2.3408203,2.6621094l-0.2958984,0.2597656c-4.7324219,4.1621094-5.0898438,5.3950195-2.4892578,8.3530273l31.28125,35.5668945
		c2.796875,3.1796875,3.6953125,3.3071289,6.4316406,0.9008789l2.6621094-2.3408203l2.7958984,3.1791992l-12.0771484,12.0639648
		l-4.6171875-5.25c1.3144531,6.7128906-0.0273438,11.3017578-4.6113281,15.3339844
		c-8.1337891,7.1533203-21.5166016,4.7607422-30.4912109-5.4433594
		C829.4257812,920.3261108,828.8261719,906.821228,837.4042969,899.2772827z M867.0361328,931.180603
		c5.6191406-4.9433594,4.0693359-13.4150391-3.9941406-22.5844727c-7.4794922-8.503418-15.7666016-10.9189453-21.0166016-6.3012695
		c-5.25,4.6171875-3.5351562,12.6816406,4.8544922,22.2207031
		C854.4882812,933.1669312,861.9335938,935.6669312,867.0361328,931.180603z"/>
	<path class="st1" d="M800.8554688,927.7323608c9.6699219-6.7919922,23.6308594-3.3613281,31.3847656,7.6787109
		c7.9228516,11.28125,6.3554688,25.4980469-3.4746094,32.4023438c-9.5087891,6.6787109-23.5273438,3.1669922-31.2802734-7.8730469
		C789.6748047,948.8202515,791.1855469,934.5233765,800.8554688,927.7323608z M826.3320312,964.3485718
		c6.0429688-4.2441406,5.1435547-12.0361328-2.5537109-22.9951172c-7.4697266-10.6367188-14.6875-14.2314453-20.4892578-10.15625
		c-5.8017578,4.0742188-4.8701172,12.0839844,2.6572266,22.8007812
		C813.4169922,964.6347046,820.6904297,968.3104858,826.3320312,964.3485718z"/>
	<path class="st1" d="M762.4179688,987.1835327c5.1328125,7.2792969,9.9638672,8.6201172,16.9931641,4.6464844l3.3427734-1.8896484
		c3.6005859-2.0361328,2.2441406-4.4355469,0.9355469-6.7509766l-13.7636719-24.3447266
		c-1.9384766-3.4296875-3.2207031-3.4960938-8.7929688-0.3466797l-0.3427734,0.1943359l-1.7441406-3.0859375l21.6875-12.2607422
		l1.7451172,3.0859375l-0.3427734,0.1933594c-5.4863281,3.1015625-6.0898438,4.2353516-4.1513672,7.6640625l14.5380859,25.7167969
		c1.9384766,3.4287109,3.2207031,3.4960938,8.7070312,0.3945312l0.6005859-0.3388672l1.7441406,3.0859375l-35.5751953,20.1113281
		l-9.0097656-14.1367188L762.4179688,987.1835327z"/>
	<path class="st1" d="M714.6503906,975.4989624c5.5117188-2.3876953,9.8457031-1.7978516,15.0986328,2.1513672
		l-7.2431641-16.7167969c-1.5664062-3.6152344-2.8339844-3.8164062-8.7080078-1.2714844l-0.9941406,0.4306641l-1.4091797-3.2529297
		l23.4941406-10.1806641l1.4101562,3.2529297l-0.3623047,0.1572266c-5.7832031,2.5058594-6.5029297,3.5693359-4.9365234,7.1835938
		l18.8330078,43.4638672c1.6835938,3.8857422,2.5,4.2832031,5.84375,2.8349609l3.2529297-1.4101562l1.6835938,3.8857422
		l-15.2021484,7.7675781l-2.7802734-6.4150391c-0.8134766,6.7919922-3.5,10.7460938-9.1025391,13.1738281
		c-9.9394531,4.3075562-21.9394531-2.0849609-27.3427734-14.5546875
		C700.5859375,993.0770874,704.1679688,980.0409546,714.6503906,975.4989624z M733.0410156,1014.9696655
		c6.8671875-2.9755859,7.9970703-11.5146484,3.1416016-22.7197266c-4.5029297-10.3916016-11.6474609-15.2382812-18.0625-12.4580078
		c-6.4160156,2.7792969-7.2626953,10.9814453-2.2119141,22.6376953
		C720.4892578,1013.0028687,726.8056641,1017.6708374,733.0410156,1014.9696655z"/>
	<path class="st1" d="M670.0888672,991.6220093c12.7060547-3.9101562,24.0214844,2.3955078,28.0761719,15.5712891
		c4.3447266,14.1181641-1.4755859,27.3446655-13.5224609,31.0516968
		c-11.4824219,3.5332031-22.5527344-3.9814453-26.8027344-18.1268921l30.4941406-9.3837891
		c-1.4990234-5.2050781-3.265625-8.2675781-5.828125-10.5703125c-3.7216797-3.3876953-7.8408203-4.3867188-12.640625-2.9101562
		c-6.3066406,1.9404297-9.390625,5.9804688-11.0185547,14.4150391l-3.8447266-0.7744141
		C656.109375,1000.765564,661.1484375,994.3729858,670.0888672,991.6220093z M683.5849609,1034.1405029
		c4.5175781-1.390625,6.6894531-5.0458984,6.9287109-11.3016968c0.1298828-2.9248047-0.1308594-5.1113281-1.0283203-8.0283203
		l-16.4707031,5.0683594c-3.0117188,0.9267578-3.6269531,1.9394531-2.7871094,4.6688843
		C672.5439453,1032.0770264,677.84375,1035.9071045,683.5849609,1034.1405029z"/>
	<path class="st1" d="M625.8144531,1002.7626343c11.9638672-2.4433594,22.0947266,5.3378906,24.8925781,19.0380859
		c2.9345703,14.3759155-3.9306641,26.531189-16.4726562,29.0917358c-8.5869141,1.7539062-16.0751953-1.9433594-17.3955078-8.4082031
		c-0.7880859-3.8583984,1.1689453-7.0722656,4.5458984-7.7617188s6.2421875,1.0371094,6.8916016,4.2207031
		c0.3349609,1.640625,0.1464844,2.6835938-1.0234375,4.8320312c-0.2675781,0.6582031-0.4013672,0.9863281-0.3417969,1.2763672
		c0.3144531,1.5439453,3.0996094,2.3818359,5.9931641,1.7910156c7.1396484-1.4580078,10.2724609-10.2382812,7.8886719-21.9121094
		c-2.3046875-11.2880249-8.5673828-17.3466187-16.2851562-15.7704468
		c-5.0175781,1.0244141-7.7265625,4.4921875-9.3955078,12.0693359l-4.0585938-0.6796875
		C613.1142578,1009.4765015,617.2275391,1004.515564,625.8144531,1002.7626343z"/>
	<path class="st1" d="M584.2705078,1009.1083374c12.1357422-1.3496094,21.5205078,7.3173828,23.0654297,21.2147827
		c1.6210938,14.5830078-6.3164062,26.0664062-19.0400391,27.4804688c-8.7099609,0.96875-15.8330078-3.3916016-16.5615234-9.9492188
		c-0.4355469-3.9140625,1.8046875-6.9375,5.2294922-7.3183594c3.4257812-0.3808594,6.1230469,1.5976562,6.4814453,4.828125
		c0.1855469,1.6630859-0.0976562,2.6855469-1.4570312,4.71875c-0.3261719,0.6308594-0.4892578,0.9462891-0.4560547,1.2402344
		c0.1738281,1.5654297,2.8710938,2.6533203,5.8066406,2.3271484c7.2421875-0.8056641,11.1572266-9.265625,9.8408203-21.1083984
		c-1.2734375-11.4501343-6.9609375-18.0507202-14.7900391-17.180603
		c-5.0898438,0.5654297-8.1015625,3.7734375-10.4501953,11.1688843l-3.9804688-1.0439453
		C571.0146484,1014.6444702,575.5595703,1010.0761108,584.2705078,1009.1083374z"/>
	<path class="st1" d="M520.7636719,1042.6571045c1.0302734,8.8466797,2.6640625,12.3662109,10.7382812,12.234375l0.984375-0.015625
		c4.1357422-0.0673828,4.0908203-2.8242188,4.046875-5.4824219l-0.4550781-27.9647827
		c-0.0634766-3.9384766-1.1582031-4.6103516-7.5585938-4.5058594l-0.3935547,0.0068359l-0.0576172-3.5449219l24.9121094-0.4052734
		l0.0576172,3.5449219l-0.3945312,0.0058594c-6.3017578,0.1025391-7.3730469,0.8095703-7.3095703,4.7480469l0.4550781,27.9638062
		c0.0439453,2.6591797,0.0878906,5.4160156,4.2236328,5.3486328l0.9853516-0.015625
		c8.0732422-0.1318359,9.5917969-3.7021484,10.3330078-12.578125l3.9394531-0.0644531l-0.6142578,16.7539062l-46.6728516,0.7587891
		l-1.1582031-16.7246094L520.7636719,1042.6571045z"/>
	<path class="st1" d="M491.3330078,1009.7616577c13.2392578,1.1904297,21.3261719,11.3095703,20.0908203,25.0390015
		c-1.3222656,14.7099609-11.7158203,24.7490234-24.2685547,23.6201172
		c-11.9648438-1.0761719-19.3652344-12.2207031-17.9443359-26.9228516l31.7734375,2.8583984
		c0.5839844-5.3857422,0.1074219-8.8886719-1.3925781-11.9891968c-2.1621094-4.5439453-5.5966797-7.0283203-10.5976562-7.4775391
		c-6.5712891-0.5908203-10.9541016,1.9804688-15.6542969,9.1698608l-3.2646484-2.171814
		C474.9335938,1012.9325562,482.0166016,1008.9237671,491.3330078,1009.7616577z M487.7304688,1054.2215576
		c4.7070312,0.4228516,8.1015625-2.1386719,10.6894531-7.8378906c1.2275391-2.6572266,1.8144531-4.7792969,2.0878906-7.8193359
		l-17.1621094-1.5439453c-3.1386719-0.2822266-4.0917969,0.4228516-4.3476562,3.2666016
		C478.2929688,1048.1326904,481.7480469,1053.6834717,487.7304688,1054.2215576z"/>
	<path class="st1" d="M465.9677734,1006.9296265l5.6298828,0.9609375l-38.34375,68.3710327l-5.6298828-0.9609375
		L465.9677734,1006.9296265z"/>
	<path class="st1" d="M357.6035156,1050.7684326c5.0273438,1.4023438,11.1699219-0.4619141,15.4814453-5.2910156l35.8125-39.6932983
		c2.8076172-3.1015625,6.6865234-7.8466797,16.8349609-5.015625c7.9677734,2.2226562,10.9042969,6.7226562,8.9726562,13.6464844
		c-0.9794922,3.5087891-4.6230469,4.84375-8.1318359,3.8652344c-2.7509766-0.7675781-4.5771484-3.0146484-3.8369141-5.6708984
		c1.4824219-5.3115234,4.984375-3.2099609,5.5136719-5.1064453c0.2119141-0.7587891-2.1484375-1.8261719-3.7607422-2.2763672
		c-5.0273438-1.4023438-8.3505859,1.3505859-11.6962891,4.9160156l-6.421875,6.8974609l11.328125,46.6083374
		c0.9716797,3.8486328,2.3144531,4.5302734,6.9619141,5.8261719l1.6123047,0.4501953l-1.2431641,4.4580078l-29.3085938-8.1757812
		l1.2441406-4.4580078l3.6044922,1.0058594c3.6035156,1.0048828,4.6318359,0.9853516,4.8964844,0.0361328
		c0.1318359-0.4736328-0.1035156-1.4599609-0.3818359-2.6621094l-6.9257812-34.5429688l-20.6025391,23.2861328
		c-1.2089844,1.4003906-1.9365234,1.8105469-2.2275391,2.8544922c-0.7148438,2.5605469,0.9599609,4.2548828,5.5126953,5.5244141
		l1.3271484,0.3701172l-1.2431641,4.4580078l-26.0830078-7.2763672l1.2431641-4.4570312L357.6035156,1050.7684326z"/>
	<path class="st1" d="M281.4628906,989.0204468c5.7177734,2.8769531,6.9951172,2.7480469,8.765625-0.7705078l13.2802734-26.3896484
		c1.7705078-3.5185547,1.1123047-4.6210938-4.5175781-7.4541016l-0.3515625-0.1777344l1.59375-3.1669922l22.2548828,11.1992188
		l-1.5927734,3.1669922l-0.3525391-0.1767578c-5.7177734-2.8769531-6.9951172-2.7480469-8.765625,0.7705078L299.25,990.9159546
		c-1.7705078,3.5185547-1.9042969,4.2226562,4.5175781,7.4541016l6.0693359,3.0546875
		c6.3339844,3.1865234,6.9951172,2.7480469,8.765625-0.7705078l12.5273438-24.8945312
		c1.7705078-3.5185547,1.1132812-4.6210938-4.6044922-7.4990234l-0.3525391-0.1767578l1.59375-3.1669922l22.2558594,11.1992188
		l-1.59375,3.1669922l-0.3515625-0.1767578c-5.6298828-2.8330078-6.9072266-2.7041016-8.6787109,0.8144531l-13.2792969,26.3896484
		c-1.7705078,3.5185547-1.1132812,4.6210938,4.5166016,7.4541016l0.6162109,0.3105469l-1.59375,3.1669922l-50.4052734-25.3642578
		l1.59375-3.1669922L281.4628906,989.0204468z"/>
	<path class="st1" d="M273.9365234,931.7577515c5,3.328125,6.8603516,7.2871094,6.4003906,13.8417969l10.0947266-15.1640625
		c2.1826172-3.2792969,1.6621094-4.453125-3.6650391-8l-0.9023438-0.6000977l1.9648438-2.9511719l21.3115234,14.1870117
		l-1.9638672,2.9511719l-0.328125-0.21875c-5.2460938-3.4921875-6.5292969-3.5185547-8.7119141-0.2392578l-26.2460938,39.4277344
		c-2.3466797,3.5244141-2.2363281,4.4257812,0.796875,6.4443359l2.9501953,1.9648438l-2.3457031,3.5244141l-14.78125-8.5380859
		l3.8740234-5.8203125c-6.1425781,3.0087891-10.9228516,2.9033203-16.0048828-0.4804688
		c-9.0166016-6.0019531-10.1728516-19.546875-2.6425781-30.859375
		C251.5400391,929.5057983,264.4277344,925.4276733,273.9365234,931.7577515z M250.8017578,968.6425171
		c6.2304688,4.1474609,14.0107422,0.4550781,20.7773438-9.7089844c6.2753906-9.4267578,6.4599609-18.0576172,0.640625-21.9316406
		c-5.8203125-3.8740234-13.1640625-0.1269531-20.203125,10.4472656
		C245.6328125,957.0390015,245.1464844,964.8778687,250.8017578,968.6425171z"/>
	<path class="st1" d="M221.4492188,891.7245483c3.5332031,2.9892578,4.140625,6.0830078,2.1005859,10.9345703
		c6.4755859-1.0991211,12.9179688,0.7387695,18.1054688,5.1269531c6.6152344,5.5966797,7.9755859,12.6801758,3.4599609,18.0175781
		c-4.0068359,4.7363281-10.1533203,5.5986328-18.6542969,2.5351562c-4.8916016-1.6875-7.8066406-3.1210938-16.8457031-8.4462891
		l-2.4794922,2.9321289c-2.8623047,3.3833008-3.8623047,5.6323242-3.4511719,8.0444336
		c0.2480469,2.1445312,2.2441406,5.1230469,4.5742188,7.09375c3.6083984,3.0527344,7.8359375,4.3076172,9.171875,2.7285156
		c0.1904297-0.2255859,0.3056641-0.5146484,0.2998047-1.4228516c0.1386719-1.6884766,0.6533203-3.0585938,1.4804688-4.0361328
		c1.9072266-2.2548828,4.9726562-2.3710938,7.3027344-0.3994141c2.6318359,2.2255859,2.8339844,5.4931641,0.4179688,8.3496094
		c-4.5791016,5.4130859-14.1904297,4.1191406-22.6103516-3.0039062c-4.8115234-4.0703125-7.6044922-8.2392578-8.4326172-12.2929688
		c-0.6533203-3.6484375,0.5546875-6.7539062,4.5615234-11.4902344l12.7832031-15.1113281
		c3.1796875-3.7587891,3.6367188-5.8232422,1.53125-7.6040039c-0.6015625-0.5087891-0.9658203-0.6879883-2.5498047-1.2543945
		c-0.7177734-0.2197266-1.0820312-0.3989258-1.3828125-0.6533203c-0.375-0.3178711-0.4335938-1.012207,0.0117188-1.5380859
		C212.6884766,888.0541382,218.0664062,888.8627319,221.4492188,891.7245483z M212.3505859,916.6600952
		c6.6904297,3.9833984,10.2587891,5.7119141,13.4794922,6.6308594c4.6435547,1.2197266,8.1308594,0.2998047,10.8017578-2.8579102
		c2.8613281-3.3828125,2.4042969-8.0263672-0.9785156-10.8881836c-3.2333984-2.7348633-8.28125-3.7807617-12.5136719-2.5893555
		c-2.9316406,0.8735352-4.0478516,1.7353516-7.8632812,6.2460938L212.3505859,916.6600952z"/>
	<path class="st1" d="M185.4726562,837.7401733c-5.8867188,6.6831055-6.0693359,11.6928711-0.5712891,17.6064453
		l27.6904297,29.7822266l-2.5957031,2.4140625l-0.4697266-0.5048828c-4.2910156-4.6152344-5.5332031-4.9394531-8.4179688-2.2573242
		l-21.6337891,20.1142578c-2.8837891,2.6816406-2.6513672,3.9443359,1.6396484,8.5595703l0.2685547,0.2885742l-2.5966797,2.4135742
		l-16.9628906-18.2446289l2.5957031-2.4135742l0.2685547,0.2885742c4.3583984,4.6870117,5.6005859,5.0112305,8.4853516,2.3291016
		l20.4794922-19.0415039c2.8847656-2.6816406,3.1210938-3.4394531-1.7060547-8.6318359l-4.6259766-4.9755859
		c-4.8945312-5.2641602-5.5332031-4.9389648-8.4179688-2.2573242l-20.4804688,19.0415039
		c-2.8842773,2.6816406-2.6513672,3.9443359,1.706543,8.6318359l0.2680664,0.2885742l-2.5961914,2.4135742l-16.9628906-18.2446289
		l2.5961914-2.4135742l0.2680664,0.2880859c4.2910156,4.6152344,5.5336914,4.9394531,8.4179688,2.2573242l21.0571289-19.5776367
		c2.8847656-2.6821289,3.3222656-3.2231445,0.2382812-6.5405273l-2.2802734-2.4516602l11.65625-12.0473633L185.4726562,837.7401733z
		"/>
	<path class="st1" d="M163.7265625,826.774353c6.890625,9.2338867,6.3173828,18.5087891,0.7929688,22.6318359
		c-2.7617188,2.0610352-6.6606445,1.7763672-8.3691406-0.512207c-1.472168-1.9731445-1.425293-5.203125,0.5478516-6.675293
		c3.1567383-2.355957,4.9003906,1.6264648,6.1630859,0.684082c1.1044922-0.824707,2.6113281-4.8979492-1.8652344-10.8959961
		c-4.3583984-5.8398438-12.9267578-5.4658203-21.4677734,0.0483398l7.5981445,10.1801758l-4.0249023,3.0039062L135.5625,835.1376343
		c-7.8740234,6.7368164-10.4726562,14.4511719-6.4672852,19.8173828c1.7670898,2.3676758,4.4033203,3.5952148,5.6660156,2.652832
		c0.2368164-0.1767578,0.3554688-0.5112305,0.5932617-1.1801758c0.5571289-2.3818359,1.1108398-3.2866211,2.4526367-4.2880859
		c2.6040039-1.9433594,5.8916016-1.3251953,7.953125,1.4370117s1.3833008,6.4628906-1.7734375,8.8188477
		c-5.2875977,3.9462891-13.3374023,1.7216797-18.5795898-5.3022461
		c-7.6567383-10.2592773-4.6904297-23.9008789,7.0688477-32.6767578
		C143.6821289,816.0526733,156.4228516,816.9887085,163.7265625,826.774353z"/>
	<path class="st1" d="M137.8486328,788.6586304c6.3950195,10.4008789,2.559082,22.5844727-9.3515625,29.9082031
		c-12.4975586,7.6845703-26.269043,5.4023438-32.9736328-5.5014648c-4.590332-7.465332-3.684082-15.7670898,1.9355469-19.222168
		c3.3549805-2.0629883,7.0444336-1.3266602,8.8496094,1.609375c1.8051758,2.9355469,1.1655273,6.21875-1.6025391,7.9208984
		c-1.4257812,0.8764648-2.4711914,1.0566406-4.8896484,0.6948242c-0.7099609-0.0263672-1.0644531-0.0390625-1.3164062,0.1157227
		c-1.3417969,0.8251953-1.175293,3.7280273,0.3720703,6.2441406c3.8164062,6.2070312,13.1376953,6.1396484,23.2871094-0.1010742
		c9.8134766-6.0341797,13.3579102-13.9931641,9.2319336-20.703125c-2.6821289-4.3618164-6.8676758-5.7177734-14.5576172-4.6884766
		l-0.7529297-4.0449219C127.1889648,779.0302124,133.2583008,781.1932983,137.8486328,788.6586304z"/>
	<path class="st1" d="M116.9125977,750.2894897c5.8378906,11.9433594,1.3681641,24.1020508-11.0175781,30.15625
		c-13.2705078,6.4868164-27.2421875,2.793457-32.7773438-8.5307617
		c-5.2758789-10.793457,0.4267578-22.8969727,13.7402344-29.2954102l14.0112305,28.6645508
		c4.9086914-2.2900391,7.6591797-4.5112305,9.5351562-7.4008789c2.7685547-4.203125,3.1147461-8.4277344,0.9091797-12.9399414
		c-2.8974609-5.9272461-7.3676758-8.3457031-15.9526367-8.6435547l0.1674805-3.9179688
		C105.7060547,737.9013062,112.8046875,741.8847046,116.9125977,750.2894897z M77.0083008,770.2323608
		c2.0756836,4.246582,6.0253906,5.8237305,12.2416992,5.0869141c2.909668-0.3261719,5.0288086-0.9233398,7.7714844-2.2641602
		l-7.5678711-15.4824219c-1.3837891-2.8310547-2.4804688-3.28125-5.0463867-2.0273438
		C77.3295898,759.0048218,74.3706055,764.8358765,77.0083008,770.2323608z"/>
	<path class="st1" d="M106.2080078,727.1410522l2.0913086,5.3144531l-78.3491211,2.5776367l-2.0913086-5.3144531
		L106.2080078,727.1410522z"/>
	<path class="st1" d="M86.8007812,670.1596069c5.0551758,18.5249023-6.472168,36.8798828-26.7075195,42.4018555
		c-10.8300781,2.9555664-22.2568359,1.4804688-30.9980469-3.9941406
		c-6.9013672-4.3432617-11.5317383-10.8374023-13.8388672-19.2924805
		c-4.9775391-18.2402344,6.765625-36.5522461,26.9057617-42.0478516
		C62.4926758,641.6786499,81.7197266,651.5394897,86.8007812,670.1596069z M23.7954102,670.8168335
		c-4.2919922,4.8457031-5.7851562,10.9692383-4.0483398,17.3344727c1.9443359,7.125,5.9785156,11.4345703,12.4477539,13.4458008
		c6.6591797,1.9594727,12.7915039,1.6132812,24.1914062-1.4980469c11.7802734-3.2143555,17.1694336-5.9101562,21.9790039-11.1015625
		c4.3867188-4.871582,5.8110352-10.8745117,3.9707031-17.6196289c-1.8408203-6.7451172-6.1166992-11.1923828-12.3701172-13.1606445
		c-6.6591797-1.9594727-12.7915039-1.6132812-24.3813477,1.5498047
		C33.9941406,662.9296265,28.440918,665.7719116,23.7954102,670.8168335z"/>
	<path class="st1" d="M73.7080078,602.937439c0.7646484,5.9580078-1.0048828,9.9580078-6.2558594,13.9086914l18.0693359-2.3203125
		c3.9067383-0.5019531,4.4521484-1.6640625,3.637207-8.0126953l-0.1381836-1.0742188l3.5161133-0.4516602l3.2612305,25.3945312
		l-3.5161133,0.4516602l-0.050293-0.390625c-0.8027344-6.2509766-1.6245117-7.237793-5.53125-6.7358398l-46.9799805,6.0332031
		c-4.199707,0.5390625-4.8081055,1.2128906-4.3442383,4.8266602l0.4516602,3.5161133l-4.199707,0.5395508l-3.2446289-16.7592773
		l6.9345703-0.890625c-6.2988281-2.6660156-9.3525391-6.3442383-10.1303711-12.3999023
		c-1.3798828-10.7436523,8.090332-20.4980469,21.5688477-22.2290039
		C60.7231445,584.5502319,72.2529297,591.6078491,73.7080078,602.937439z M30.6875,609.6537476
		c0.953125,7.4228516,8.8427734,10.8774414,20.9541016,9.3217773c11.2324219-1.4423828,17.8706055-6.9609375,16.9799805-13.8955078
		s-8.534668-10.0234375-21.1342773-8.4057617C36.0595703,598.1420288,29.8222656,602.9140015,30.6875,609.6537476z"/>
	<path class="st1" d="M68.8374023,554.0292358l-0.4116211,25.3051758l-3.5449219-0.0576172l0.0288086-1.7724609
		c0.0849609-5.2182617-1.1821289-6.0268555-3.8408203-6.0703125l-29.440918-0.4790039
		c-2.6586914-0.043457-5.3999023-1.0727539-5.5136719,5.918457l-0.0288086,1.7719727l-3.5444336-0.0576172l0.4067383-25.0097656
		l3.5449219,0.0576172l-0.0288086,1.7719727c-0.1137695,6.9912109,2.6591797,6.0512695,5.3178711,6.0947266l10.9296875,0.1777344
		l0.0444336-2.7568359c0.3833008-23.5332031,4.9990234-28.7768555,13.171875-28.6435547
		C63.7060547,530.406189,69.1147461,536.9945679,68.8374023,554.0292358z M69.2827148,526.6557007l-3.5449219-0.0576172
		l0.0112305-0.6894531c0.1025391-6.3017578-0.5688477-7.3959961-4.5073242-7.4599609l-29.5395508-0.4804688
		c-3.9384766-0.0644531-4.6455078,1.0078125-4.7480469,7.3095703l-0.0112305,0.6889648l-3.5449219-0.0576172l0.4150391-25.5024719
		l3.5449219,0.0576172l-0.0112305,0.6894531c-0.1044922,6.4003906,0.5673828,7.4946289,4.5058594,7.5585938l29.5395508,0.4804688
		c3.9384766,0.0644531,4.6455078-1.0078125,4.7495117-7.4077148l0.0112305-0.6894531l3.5449219,0.0576172L69.2827148,526.6557007z
		 M47.2836914,559.0951538l-0.0429688,2.6586914l12.800293,0.2084961c3.4462891,0.0561523,4.043457-0.328125,4.0883789-3.0854492
		l0.0112305-0.6889648c0.1699219-10.4375-1.2807617-18.1435547-8.5668945-18.2617188
		C48.2871094,539.8075562,47.4360352,549.7411499,47.2836914,559.0951538z"/>
	<path class="st1" d="M37.8823242,437.3968811c-1.034668,6.3168945-0.5292969,7.4975586,3.3579102,8.1337891l29.1547852,4.7749023
		c3.8876953,0.6362305,4.7426758-0.3212891,5.7612305-6.5410156l0.0639648-0.3886719l3.4985352,0.5727539l-4.0263672,24.5874023
		l-3.4985352-0.5727539l0.0634766-0.3886719c1.034668-6.3168945,0.5292969-7.4975586-3.3579102-8.1342773l-12.7314453-2.0844727
		l-3.5009766,21.3803711l12.730957,2.0844727c3.887207,0.6367188,4.7426758-0.3208008,5.7773438-6.6376953l0.0634766-0.3886719
		l3.4985352,0.5727539l-4.0263672,24.5874023l-3.4985352-0.5727539l0.0634766-0.3886719
		c1.0185547-6.2197266,0.5131836-7.4003906-3.3740234-8.0371094l-29.1547852-4.7744141
		c-3.8876953-0.6367188-4.7426758,0.3212891-5.7612305,6.5410156l-0.1113281,0.6801758l-3.4990234-0.5732422l4.1064453-25.0732422
		l3.4985352,0.5732422l-0.1113281,0.6801758c-1.0185547,6.2197266-0.5136719,7.4003906,3.3740234,8.0366211l11.4672852,1.8779297
		l3.5014648-21.3803711l-11.4677734-1.8779297c-3.887207-0.6362305-4.7426758,0.3212891-5.7768555,6.6381836l-0.1118164,0.6801758
		l-3.4985352-0.5727539l4.1381836-25.2675781l3.4985352,0.5727539L37.8823242,437.3968811z"/>
	<path class="st1" d="M106.8134766,395.7870178c-8.7509766-1.6630859-13.1557617,0.7314453-15.4453125,8.4750977
		l-6.5898438,22.2871094c-2.2900391,7.7441406,0.1044922,12.1489258,8.3525391,15.5117188l-1.1171875,3.777832l-15.8027344-5.597168
		l1.6196289-5.4770508c0.7260742-2.4555664-0.7890625-3.9306641-2.3320312-5.3110352
		c-5.2451172-4.8369141-13.7163086-7.4443359-21.3657227-9.7060547l-4.7216797-1.3964844
		c-2.4555664-0.7260742-5.9111328-1.5424805-7.9213867,5.2573242l-0.5029297,1.699707l-3.3994141-1.0053711l14.2407227-48.1625977
		l3.3999023,1.0053711l-0.5024414,1.699707c-1.5078125,5.0996094-0.6821289,6.4736328,1.8676758,7.2275391l28.3310547,8.3769531
		c3.7773438,1.1171875,4.4663086,1.2177734,5.7509766-3.1259766l0.949707-3.2109375l16.3051758,3.8969727L106.8134766,395.7870178z
		 M56.140625,395.5917053c-3.2109375-0.9492188-4.2109375-1.0395508-5.1606445,2.1713867l-2.3735352,8.0268555
		c-1.3120117,4.4384766-0.440918,5.3125,7.3974609,7.6298828c7.6494141,2.262207,16.1206055,4.8696289,21.3652344,9.706543
		c0.5776367,0.4790039,0.9936523,0.8071289,1.371582,0.9189453c1.1333008,0.3349609,1.5732422-0.4589844,1.7407227-1.0253906
		l3.6860352-12.4658203c1.0893555-3.6831055,1.0595703-6.3618164-1.4902344-7.1157227L56.140625,395.5917053z"/>
	<path class="st1" d="M114.1079102,348.438385c-1.8300781,4.2509766-4.612793,5.7333984-9.8491211,5.1948242
		c2.9389648,5.8754883,3.0571289,12.5742188,0.3701172,18.8154297c-3.4267578,7.9599609-9.8071289,11.324707-16.2294922,8.5600586
		c-5.6982422-2.4536133-8.3144531-8.0830078-7.8598633-17.1079102c0.1894531-5.1723633,0.7119141-8.378418,3.1723633-18.5766602
		l-3.5273438-1.5185547c-4.0708008-1.7524414-6.5141602-2.0537109-8.7011719-0.9584961
		c-1.9799805,0.8632812-4.2475586,3.6396484-5.4545898,6.4438477c-1.8691406,4.3417969-1.8374023,8.7514648,0.0620117,9.5693359
		c0.2714844,0.1166992,0.581543,0.1430664,1.4482422-0.1269531c1.65625-0.359375,3.1171875-0.2666016,4.2929688,0.2392578
		c2.7138672,1.168457,3.7177734,4.0664062,2.5102539,6.8706055c-1.362793,3.1660156-4.4291992,4.3120117-7.8666992,2.8320312
		c-6.5126953-2.8037109-8.074707-12.375-3.7133789-22.5058594c2.4921875-5.7890625,5.6665039-9.6762695,9.3037109-11.6489258
		c3.300293-1.6884766,6.6230469-1.4375,12.3217773,1.015625l18.1811523,7.8271484
		c4.5224609,1.9472656,6.6303711,1.7822266,7.7211914-0.75c0.3115234-0.7236328,0.3764648-1.1245117,0.4570312-2.8056641
		c0.0009766-0.75,0.0664062-1.1503906,0.222168-1.5126953c0.1948242-0.4521484,0.8417969-0.7094727,1.4750977-0.4370117
		C115.0673828,338.9872131,115.8603516,344.3675842,114.1079102,348.438385z M87.6015625,346.9984436
		c-1.8613281,7.5615234-2.4755859,11.4790039-2.4165039,14.828125c0.1860352,4.7973633,2.0820312,7.8652344,5.8813477,9.5009766
		c4.0703125,1.7524414,8.3793945-0.0380859,10.1318359-4.1088867c1.6743164-3.8891602,1.2041016-9.0234375-1.1689453-12.7255859
		c-1.6899414-2.550293-2.8398438-3.3671875-8.2666016-5.703125L87.6015625,346.9984436z"/>
	<path class="st1" d="M111.3295898,265.3246155c-2.6953125,4.5834961-2.2255859,6.1162109,0.0664062,7.4638672
		l27.3330078,16.0712891c2.2915039,1.3476562,4.3979492-1.0688477,5.8457031-3.5307617l0.8984375-1.527832l3.0556641,1.796875
		l-12.6274414,21.4755859l-3.0561523-1.796875l0.7490234-1.2729492c1.9462891-3.3105469,2.5649414-5.9169922,0.2729492-7.2646484
		l-25.2104492-14.8237305c-4.0249023-2.4804688-4.1992188-1.2124023-6.7797852,2.9819336l-1.796875,3.0556641
		c-2.1459961,3.6503906-1.9858398,4.5439453,1.1547852,6.390625l4.3291016,2.5454102
		c16.8071289,9.8828125,26.409668,18.6132812,19.5717773,30.2421875c-3.8432617,6.5361328-7.8671875,7.9399414-13.3847656,4.6958008
		c-2.8012695-1.6474609-3.8251953-4.7626953-1.9287109-7.9882812c1.9467773-3.3105469,4.8173828-3.3359375,6.9394531-2.0878906
		c2.8012695,1.6469727,1.2841797,3.8388672,2.2177734,4.3881836c0.8486328,0.4990234,1.2182617,0.2592773,2.0166016-1.0991211
		c1.3979492-2.3764648,1.2075195-4.7729492-0.1157227-7.3789062c-3.2114258-6.0004883-11.3603516-10.7919922-18.6606445-15.0844727
		l-4.2441406-2.4956055c-2.2568359-1.2128906-4.9135742-3.6889648-8.956543,3.1870117l-0.8979492,1.527832l-3.0561523-1.796875
		l24.1074219-40.9995117l3.0556641,1.796875L111.3295898,265.3246155z"/>
	<path class="st1" d="M146.6401367,218.9164276c-2.2768555,2.9692383-1.9726562,5.8085938,1.2958984,11.4169922
		l15.2045898,25.8061371c6.0371094,10.0893555,7.9638672,14.0488281,9.3886719,18.987793
		c1.8222656,6.3613281,1.1582031,11.4355469-2.0175781,15.5771484c-3.1162109,4.0634766-8.0322266,5.1333008-11.4702148,2.4970703
		c-2.8129883-2.1572266-3.3466797-5.6689453-1.2495117-8.4038086c1.737793-2.2661133,4.5410156-2.8466797,6.5722656-1.2885742
		c0.625,0.4794922,1.2089844,1.1748047,1.7324219,1.9487305c0.2529297,0.3178711,0.5830078,0.6953125,0.5830078,0.6953125
		c0.46875,0.3598633,1.2011719,0.0522461,1.7402344-0.6508789c1.9179688-2.5004883,0.5927734-9.3491211-3.1894531-16.7158203
		l-1.7158203-3.4257812l-38.6010742-9.3740082c-4.2041016-0.9902344-6.3764648-0.4228516-8.2939453,2.0776215l-0.6591797,0.8598633
		l-2.8129883-2.1572266l14.2612305-18.597641l2.8129883,2.1572266l-1.2583008,1.6411133
		c-2.0375977,2.6567383-2.2094727,4.0136719-0.8027344,5.0922852c0.390625,0.2998047,1.0571289,0.5629883,2.0004883,0.7895508
		l26.6733398,6.8041992l-12.2070312-20.652832c-0.9086914-1.5654297-1.7451172-2.5791016-2.5263672-3.1782227
		c-2.0317383-1.5581055-3.8500977-0.9667969-6.1269531,2.0024414l-0.9589844,1.2504883l-2.8129883-2.1572266l11.984375-15.628418
		l2.8129883,2.1572266L146.6401367,218.9164276z"/>
	<path class="st1" d="M225.9658203,215.0233612c-6.9804688-5.53125-11.9931641-5.4526367-17.6123047,0.3457031l-16.171875,16.6875
		c-5.6191406,5.7978516-5.5410156,10.8105469,0.2060547,17.6142578l-2.7412109,2.828125l-11.4033203-12.2856445l3.9746094-4.1010742
		c1.78125-1.8388672,1.1230469-3.8476562,0.3964844-5.7861328c-2.4033203-6.7167969-8.6982422-12.9550781-14.4257812-18.5058594
		l-3.5361328-3.4262695c-1.8378906-1.7817383-4.5205078-4.1074219-9.4545898,0.9838867l-1.2333984,1.2724609l-2.5458984-2.4667969
		l34.9487305-36.0615234l2.5458984,2.4667969l-1.2333984,1.2729492c-3.7001953,3.8178711-3.6054688,5.418457-1.6962891,7.2685547
		l21.2119141,20.5581055c2.8291016,2.7412109,3.3925781,3.1499023,6.5449219-0.1025391l2.3291016-2.4042969l12.6376953,11.0131836
		L225.9658203,215.0233612z M181.1679688,191.352951c-2.4042969-2.3300781-3.2480469-2.8735352-5.578125-0.4697266
		l-5.8251953,6.0102539c-3.2207031,3.3232422-2.8544922,4.5014648,3.0146484,10.1894531
		c5.7275391,5.550293,12.0224609,11.7885742,14.4257812,18.5058594c0.2900391,0.6914062,0.5058594,1.1757812,0.7890625,1.449707
		c0.8486328,0.8222656,1.6064453,0.3232422,2.0175781-0.1010742l9.0458984-9.3339844
		c2.6728516-2.7573242,3.8886719-5.144043,1.9794922-6.9941406L181.1679688,191.352951z"/>
	<path class="st1" d="M254.3740234,176.3778534c-3.5878906,2.9233398-6.7412109,2.9511719-11.1347656,0.0522461
		c-0.1113281,6.5683594-3.1035156,12.5625-8.3720703,16.8540039c-6.7197266,5.4731445-13.9326172,5.5058594-18.3486328,0.0844727
		c-3.9179688-4.8100586-3.6347656-11.0112305,0.9423828-18.8032227c2.5595703-4.4980469,4.5048828-7.0996094,11.4023438-15.0043945
		l-2.4248047-2.9775391c-2.7988281-3.4360352-4.8261719-4.8334961-7.2724609-4.8730469
		c-2.1542969-0.1503906-5.4482422,1.2626953-7.8154297,3.190918c-3.6650391,2.9853516-5.6767578,6.909668-4.3701172,8.5131836
		c0.1865234,0.2290039,0.4492188,0.3959961,1.3427734,0.5571289c1.6347656,0.4472656,2.8867188,1.2050781,3.6953125,2.1977539
		c1.8662109,2.2905273,1.4160156,5.324707-0.9511719,7.2524414c-2.6728516,2.1767578-5.9208984,1.7749023-8.2841797-1.1264648
		c-4.4785156-5.4975586-1.4375-14.706543,7.1142578-21.6723633c4.8867188-3.9804688,9.4990234-5.9589844,13.6357422-6.0263672
		c3.7070312,0.0288086,6.5371094,1.7880859,10.4550781,6.5986328l12.5019531,15.347168
		c3.109375,3.8178711,5.0546875,4.6464844,7.1923828,2.9052734c0.6113281-0.4975586,0.8544922-0.8227539,1.703125-2.2758789
		c0.3476562-0.6645508,0.5908203-0.9897461,0.8964844-1.2382812c0.3818359-0.3110352,1.0742188-0.2402344,1.5097656,0.2939453
		C259.5957031,168.4418182,257.8105469,173.5795135,254.3740234,176.3778534z M231.5380859,162.8446503
		c-5.1474609,5.84375-7.5029297,9.0327148-8.9990234,12.0297852c-2.0537109,4.3398438-1.7910156,7.9365234,0.8203125,11.1435547
		c2.7988281,3.4360352,7.4472656,3.8413086,10.8837891,1.0424805c3.2832031-2.6743164,5.2402344-7.4443359,4.8486328-11.8242188
		c-0.3193359-3.0424805-0.9609375-4.2983398-4.6923828-8.8793945L231.5380859,162.8446503z"/>
	<path class="st1" d="M264.7783203,169.8334198l-4.7177734,3.21875l-19.9033203-75.8256912l4.7177734-3.21875
		L264.7783203,169.8334198z"/>
</g>
<g>
</g>
<g>
</g>
<g>
</g>
<g>
</g>
<g>
</g>
<g>
</g>
<g>
</g>
<g>
</g>
<g>
</g>
<g>
</g>
<g>
</g>
</svg>
